<?xml version="1.0" encoding="UTF-8"?>
<svg version="1.1" xmlns="http://www.w3.org/2000/svg" width="512" height="512">
<path d="M0 0 C168.96 0 337.92 0 512 0 C512 168.96 512 337.92 512 512 C343.04 512 174.08 512 0 512 C0 343.04 0 174.08 0 0 Z " fill="#0A0A0F" transform="translate(0,0)"/>
<path d="M0 0 C0.84473373 -0.00807175 1.68946747 -0.01614349 2.55979919 -0.02445984 C4.34233596 -0.03822797 6.12489828 -0.04898229 7.9074707 -0.05688477 C9.70410057 -0.06836121 11.50069753 -0.08874373 13.29711914 -0.1184082 C24.50703396 -0.30298872 34.51378885 0.08509792 45.05859375 4.23828125 C45.38859375 4.56828125 45.71859375 4.89828125 46.05859375 5.23828125 C47.43202443 5.34438319 48.80761944 5.42298077 50.18359375 5.48828125 C54.63393782 5.91918758 57.05142393 7.25857669 60.484375 10.02734375 C62.51439316 11.58889618 64.64095043 12.43240014 67.05859375 13.23828125 C67.05859375 13.89828125 67.05859375 14.55828125 67.05859375 15.23828125 C67.94417969 15.191875 68.82976562 15.14546875 69.7421875 15.09765625 C82.68184267 15.64633421 93.50748689 29.68717439 102.05859375 38.23828125 C102.73921875 38.88410156 103.41984375 39.52992188 104.12109375 40.1953125 C108.62185182 44.50551428 112.0614646 48.77963158 115.05859375 54.23828125 C115.63609375 55.24890625 116.21359375 56.25953125 116.80859375 57.30078125 C118.22469801 60.62862626 118.54864742 63.66865696 119.05859375 67.23828125 C120.04281521 69.24609302 121.04093448 71.24720877 122.05859375 73.23828125 C122.05859375 74.55828125 122.05859375 75.87828125 122.05859375 77.23828125 C120.31340454 77.29773926 120.31340454 77.29773926 118.53295898 77.35839844 C114.14303823 77.51258839 109.7542685 77.68966392 105.36547852 77.87304688 C103.47964493 77.94878187 101.59356362 78.01862105 99.70727539 78.08203125 C79.52605012 78.73184259 79.52605012 78.73184259 61.05859375 86.23828125 C57.6727612 87.36555488 54.26093419 88.31408532 50.82421875 89.2734375 C47.92503666 89.92439741 47.92503666 89.92439741 47.05859375 92.23828125 C44.15599564 93.61319615 42.2972067 94.23828125 39.05859375 94.23828125 C39.05859375 94.89828125 39.05859375 95.55828125 39.05859375 96.23828125 C37.73859375 96.23828125 36.41859375 96.23828125 35.05859375 96.23828125 C34.71828125 97.35783203 34.71828125 97.35783203 34.37109375 98.5 C32.77498345 101.82998011 31.10983352 103.01514309 28.05859375 105.05078125 C26.72828125 105.95763672 26.72828125 105.95763672 25.37109375 106.8828125 C23.05859375 108.23828125 23.05859375 108.23828125 21.05859375 108.23828125 C20.56359375 109.72328125 20.56359375 109.72328125 20.05859375 111.23828125 C18.64274303 112.38444612 17.22555825 113.52901288 15.80078125 114.6640625 C13.07322987 117.12864368 10.96901403 119.99874342 8.78125 122.94140625 C7.05859375 125.23828125 7.05859375 125.23828125 5.4921875 127.03515625 C0.76871541 132.60959329 -1.35748193 139.0194797 -3.7421875 145.82421875 C-4.94140625 149.23828125 -4.94140625 149.23828125 -5.94140625 151.23828125 C-7.12106438 159.94593646 -7.06578876 168.72000564 -7.00390625 177.48828125 C-6.99939453 178.72191406 -6.99488281 179.95554687 -6.99023438 181.2265625 C-6.97859112 184.23052194 -6.96224001 187.23437391 -6.94140625 190.23828125 C-8.36198888 190.0808168 -9.78255943 189.92324333 -11.203125 189.765625 C-11.99420654 189.67788818 -12.78528809 189.59015137 -13.6003418 189.49975586 C-22.42448718 188.51418284 -22.42448718 188.51418284 -24.8515625 187.21875 C-31.17197477 184.25347247 -40.53017029 186.16723593 -46.94140625 188.23828125 C-51.71690634 190.38303018 -56.31917403 192.77929752 -60.94140625 195.23828125 C-64.91151103 197.33334859 -67.4117541 198.63795644 -71.94140625 198.23828125 C-71.53570393 192.25417209 -70.81603518 189.88783596 -66.94140625 185.23828125 C-64.62800675 180.36881797 -62.8808017 175.55203329 -61.94140625 170.23828125 C-62.93140625 169.64015625 -63.92140625 169.04203125 -64.94140625 168.42578125 C-65.93140625 167.70390625 -66.92140625 166.98203125 -67.94140625 166.23828125 C-67.94140625 165.24828125 -67.94140625 164.25828125 -67.94140625 163.23828125 C-68.53050781 163.1403125 -69.11960938 163.04234375 -69.7265625 162.94140625 C-72.38076228 162.09880314 -73.48067891 161.00487381 -75.37890625 158.98828125 C-76.27609375 158.0446875 -76.27609375 158.0446875 -77.19140625 157.08203125 C-77.76890625 156.47359375 -78.34640625 155.86515625 -78.94140625 155.23828125 C-79.91870353 154.31962181 -80.89761155 153.40266949 -81.87890625 152.48828125 C-83.94140625 150.23828125 -83.94140625 150.23828125 -83.94140625 147.23828125 C-84.60140625 147.23828125 -85.26140625 147.23828125 -85.94140625 147.23828125 C-86.27140625 146.24828125 -86.60140625 145.25828125 -86.94140625 144.23828125 C-87.91788642 143.21530203 -88.92271963 142.21923873 -89.94140625 141.23828125 C-93.2617821 137.62493106 -94.48537343 135.1406341 -94.94140625 130.23828125 C-95.93140625 130.23828125 -96.92140625 130.23828125 -97.94140625 130.23828125 C-103.54503852 119.72576982 -103.41531474 108.33206283 -103.33251953 96.73754883 C-103.31637293 94.04522532 -103.33247353 91.35438871 -103.3515625 88.66210938 C-103.34958085 86.92317383 -103.3457388 85.18423919 -103.33984375 83.4453125 C-103.34591644 82.65445755 -103.35198914 81.8636026 -103.35824585 81.04878235 C-103.28690642 75.30466699 -101.97526712 70.58431871 -99.94140625 65.23828125 C-99.54953125 64.06265625 -99.15765625 62.88703125 -98.75390625 61.67578125 C-98.35171875 60.46921875 -98.35171875 60.46921875 -97.94140625 59.23828125 C-97.28140625 59.23828125 -96.62140625 59.23828125 -95.94140625 59.23828125 C-95.833125 58.67238281 -95.72484375 58.10648438 -95.61328125 57.5234375 C-94.10065796 52.37875944 -90.73219569 47.4043767 -86.25390625 44.48828125 C-85.49078125 44.07578125 -84.72765625 43.66328125 -83.94140625 43.23828125 C-83.53277344 42.52800781 -83.12414062 41.81773437 -82.703125 41.0859375 C-74.61645522 28.01457991 -60.19867394 17.21403451 -45.88671875 12.34375 C-42.9728278 11.25007475 -40.57198657 9.88624949 -37.94140625 8.23828125 C-32.26394987 5.65761926 -26.84565094 3.39479976 -20.62890625 2.67578125 C-17.14496959 2.64813533 -17.14496959 2.64813533 -15.94140625 1.23828125 C-10.61698223 0.26756817 -5.40307661 0.05021008 0 0 Z " fill="#FDFDFD" transform="translate(206.94140625,121.76171875)"/>
<path d="M0 0 C0.88141663 -0.00637985 1.76283325 -0.0127597 2.67095947 -0.01933289 C3.62613464 -0.02044571 4.58130981 -0.02155853 5.56542969 -0.02270508 C7.03807281 -0.02769768 7.03807281 -0.02769768 8.54046631 -0.03279114 C10.62186209 -0.03786111 12.70326602 -0.04019944 14.78466797 -0.04003906 C17.96042428 -0.04221789 21.13582898 -0.06035173 24.31152344 -0.0793457 C26.33365767 -0.08228118 28.35579355 -0.08426494 30.37792969 -0.08520508 C31.32500793 -0.09239059 32.27208618 -0.09957611 33.24786377 -0.10697937 C38.16906051 -0.09004394 42.11542507 0.25467566 46.73730469 2.14526367 C48.88269834 2.77177127 51.02854203 3.39673959 53.17480469 4.02026367 C58.20982048 5.55315902 62.30277971 7.34958488 66.73730469 10.14526367 C67.72730469 10.47526367 68.71730469 10.80526367 69.73730469 11.14526367 C69.73730469 11.80526367 69.73730469 12.46526367 69.73730469 13.14526367 C71.38730469 13.47526367 73.03730469 13.80526367 74.73730469 14.14526367 C74.73730469 15.13526367 74.73730469 16.12526367 74.73730469 17.14526367 C76.05730469 17.14526367 77.37730469 17.14526367 78.73730469 17.14526367 C78.73730469 17.80526367 78.73730469 18.46526367 78.73730469 19.14526367 C79.45917969 19.26901367 80.18105469 19.39276367 80.92480469 19.52026367 C88.51643366 21.20729233 92.79469242 25.29090739 97.73730469 31.14526367 C99.00254084 33.44325443 99.81653793 35.67373185 100.73730469 38.14526367 C101.45917969 38.86713867 102.18105469 39.58901367 102.92480469 40.33276367 C103.52292969 40.93088867 104.12105469 41.52901367 104.73730469 42.14526367 C104.73730469 43.46526367 104.73730469 44.78526367 104.73730469 46.14526367 C105.39730469 46.14526367 106.05730469 46.14526367 106.73730469 46.14526367 C111.97332239 55.61996238 113.22412832 64.4350445 113.11230469 75.14526367 C113.12390625 76.25643555 113.13550781 77.36760742 113.14746094 78.51245117 C113.09912275 92.2082711 108.59613279 103.64591185 99.73730469 114.14526367 C99.40730469 115.13526367 99.07730469 116.12526367 98.73730469 117.14526367 C98.07730469 117.14526367 97.41730469 117.14526367 96.73730469 117.14526367 C96.46917969 117.78463867 96.20105469 118.42401367 95.92480469 119.08276367 C94.73730469 121.14526367 94.73730469 121.14526367 91.73730469 122.14526367 C91.40730469 123.13526367 91.07730469 124.12526367 90.73730469 125.14526367 C90.07730469 125.14526367 89.41730469 125.14526367 88.73730469 125.14526367 C88.53105469 125.70213867 88.32480469 126.25901367 88.11230469 126.83276367 C86.16047437 130.11538739 83.79499474 131.85199613 80.73730469 134.14526367 C80.07730469 134.14526367 79.41730469 134.14526367 78.73730469 134.14526367 C79.58761955 141.5315808 80.98177859 147.51718374 84.71386719 153.98901367 C85.73730469 156.14526367 85.73730469 156.14526367 85.73730469 160.14526367 C86.72730469 160.14526367 87.71730469 160.14526367 88.73730469 160.14526367 C90.73730469 163.14526367 90.73730469 163.14526367 90.73730469 167.14526367 C88.79913734 167.03107707 86.8617537 166.90352944 84.92480469 166.77026367 C83.84585938 166.7006543 82.76691406 166.63104492 81.65527344 166.55932617 C78.73730469 166.14526367 78.73730469 166.14526367 75.73730469 164.14526367 C74.39746755 163.64659218 73.04089128 163.19174229 71.67480469 162.77026367 C66.5922104 161.14015531 61.67177569 159.17468077 56.73730469 157.14526367 C56.73730469 156.48526367 56.73730469 155.82526367 56.73730469 155.14526367 C55.67189453 154.83782227 55.67189453 154.83782227 54.58496094 154.52416992 C53.20630859 154.12004883 53.20630859 154.12004883 51.79980469 153.70776367 C50.88328125 153.44092773 49.96675781 153.1740918 49.02246094 152.89916992 C46.73730469 152.14526367 46.73730469 152.14526367 45.73730469 151.14526367 C44.25205344 151.23454702 42.77066956 151.39020962 41.29418945 151.57446289 C36.11730951 152.14680667 31.03160601 152.29058696 25.82714844 152.27807617 C24.93363174 152.2790329 24.04011505 152.27998962 23.11952209 152.28097534 C21.25326465 152.28164983 19.38700476 152.27984716 17.52075195 152.27563477 C14.65082662 152.27021842 11.78105373 152.27563358 8.91113281 152.28198242 C7.09147101 152.28132263 5.2718093 152.28004352 3.45214844 152.27807617 C2.59185532 152.2801004 1.73156219 152.28212463 0.84519958 152.28421021 C-5.14770647 152.26025251 -5.14770647 152.26025251 -6.26269531 151.14526367 C-7.73263197 150.79188496 -9.21461474 150.48819308 -10.70019531 150.20776367 C-12.04017578 149.9505957 -12.04017578 149.9505957 -13.40722656 149.68823242 C-14.34953125 149.50905273 -15.29183594 149.32987305 -16.26269531 149.14526367 C-18.13808472 148.77221598 -20.01310785 148.39732049 -21.88769531 148.02026367 C-23.14453125 147.76889648 -23.14453125 147.76889648 -24.42675781 147.51245117 C-25.03261719 147.3912793 -25.63847656 147.27010742 -26.26269531 147.14526367 C-26.26269531 146.48526367 -26.26269531 145.82526367 -26.26269531 145.14526367 C-28.24269531 144.81526367 -30.22269531 144.48526367 -32.26269531 144.14526367 C-32.26269531 143.48526367 -32.26269531 142.82526367 -32.26269531 142.14526367 C-33.40738281 141.95963867 -33.40738281 141.95963867 -34.57519531 141.77026367 C-37.26269531 141.14526367 -37.26269531 141.14526367 -40.26269531 139.14526367 C-40.26269531 138.15526367 -40.26269531 137.16526367 -40.26269531 136.14526367 C-43.52815293 134.26134582 -46.54381292 133.652384 -50.26269531 133.14526367 C-50.26269531 132.48526367 -50.26269531 131.82526367 -50.26269531 131.14526367 C-50.92269531 131.14526367 -51.58269531 131.14526367 -52.26269531 131.14526367 C-53.16011919 129.76461155 -54.05313128 128.38093928 -54.92675781 126.98510742 C-56.5095062 124.80535745 -58.31387191 123.06602836 -60.26269531 121.20776367 C-63.17325995 118.36700963 -65.39637512 115.72178638 -67.25878906 112.05541992 C-68.51106443 109.67268586 -69.99009889 107.46866947 -71.45019531 105.20776367 C-74.190294 100.70518945 -74.9778945 97.36661199 -75.26269531 92.14526367 C-75.59269531 91.81526367 -75.92269531 91.48526367 -76.26269531 91.14526367 C-76.50692289 86.71327321 -76.49129797 82.27538725 -76.50292969 77.83740234 C-76.51255109 75.61606179 -76.54351806 73.39568031 -76.57519531 71.17456055 C-76.62963643 63.93317543 -76.50960754 57.77306265 -73.26269531 51.14526367 C-72.93140625 50.24807617 -72.60011719 49.35088867 -72.25878906 48.42651367 C-71.17604505 45.94681758 -69.86371408 43.8688735 -68.32519531 41.64526367 C-66.7027648 39.27432053 -65.14489348 36.94264451 -63.70019531 34.45776367 C-59.04538449 26.96958974 -52.80313444 21.5808161 -45.26269531 17.14526367 C-44.93269531 16.48526367 -44.60269531 15.82526367 -44.26269531 15.14526367 C-42.22363281 14.43432617 -42.22363281 14.43432617 -39.63769531 13.77026367 C-36.37223535 12.85185306 -33.53974997 11.90530608 -30.63769531 10.14526367 C-27.98838366 8.57530121 -25.80514258 7.53512823 -22.95019531 6.52026367 C-19.28480354 5.44436814 -19.28480354 5.44436814 -17.26269531 3.14526367 C-14.73144531 2.54760742 -14.73144531 2.54760742 -11.76269531 2.08276367 C-7.64218326 1.42673478 -4.15005361 0.02036239 0 0 Z " fill="#FDFDFD" transform="translate(295.2626953125,218.854736328125)"/>
<path d="M0 0 C4.330702 2.12613941 6.84005276 5.78993334 9 10 C9.76205727 14.1029605 9.78708263 17.89830177 9 22 C6.71107736 25.32706788 3.95476934 27.27538723 0.1875 28.671875 C-2.85863665 29.1287955 -5.68669638 28.83819733 -8.75 28.5625 C-9.92046875 28.46066406 -11.0909375 28.35882813 -12.296875 28.25390625 C-13.18890625 28.17011719 -14.0809375 28.08632813 -15 28 C-15.33 27.01 -15.66 26.02 -16 25 C-16.66 25 -17.32 25 -18 25 C-18 24.01 -18 23.02 -18 22 C-18.66 22 -19.32 22 -20 22 C-20.10864945 19.93867858 -20.18588321 17.87568679 -20.25 15.8125 C-20.29640625 14.66394531 -20.3428125 13.51539063 -20.390625 12.33203125 C-19.92342681 8.34683065 -18.73014105 6.86639578 -16 4 C-15.319375 3.236875 -14.63875 2.47375 -13.9375 1.6875 C-9.40672064 -0.91528814 -5.0952208 -0.86790839 0 0 Z " fill="#0E0E13" transform="translate(348,261)"/>
<path d="M0 0 C4.35092662 0.80885999 6.2707822 2.53623568 9.04296875 5.87109375 C11.37054253 9.30038579 11.32126723 11.59384958 11.27734375 15.72265625 C11.26832031 16.81835938 11.25929688 17.9140625 11.25 19.04296875 C11.23839844 19.88601563 11.22679687 20.7290625 11.21484375 21.59765625 C10.55484375 21.59765625 9.89484375 21.59765625 9.21484375 21.59765625 C9.21484375 22.58765625 9.21484375 23.57765625 9.21484375 24.59765625 C8.55484375 24.59765625 7.89484375 24.59765625 7.21484375 24.59765625 C7.21484375 25.91765625 7.21484375 27.23765625 7.21484375 28.59765625 C2.6996034 30.92810288 -1.83215589 31.79596279 -6.78515625 30.59765625 C-10.70624273 28.05977512 -14.90474676 25.06561263 -16.51953125 20.5390625 C-17.35806766 14.41034783 -16.68789423 10.09212456 -13.78515625 4.59765625 C-9.8046025 -0.42563937 -6.09185695 -0.1576071 0 0 Z " fill="#0C0C11" transform="translate(286.78515625,260.40234375)"/>
<path d="M0 0 C0 0.66 0 1.32 0 2 C0.8971875 2.4021875 0.8971875 2.4021875 1.8125 2.8125 C4.18822032 4.10217675 5.41525286 4.80296419 7 7 C7.2172101 9.64996326 7.28351554 12.05076558 7.1875 14.6875 C7.16719727 15.7403418 7.16719727 15.7403418 7.14648438 16.81445312 C7.11120182 18.54329829 7.05739583 20.27174765 7 22 C6.34 22 5.68 22 5 22 C4.67 22.99 4.34 23.98 4 25 C3.34 25 2.68 25 2 25 C1.67 25.99 1.34 26.98 1 28 C-4.53158332 30.34028525 -10.62244753 29.09855706 -16 27 C-16 26.34 -16 25.68 -16 25 C-16.66 25 -17.32 25 -18 25 C-20.39597856 19.45929958 -21.03671557 13.92767209 -20 8 C-15.93491234 -1.11781986 -9.010335 -0.97555507 0 0 Z " fill="#0F0F14" transform="translate(263,165)"/>
<path d="M0 0 C3.8392182 2.68745274 5.81476244 5.4745475 7 10 C7.47650325 15.24153573 6.83336099 18.54757559 4 23 C1.39070749 25.44621173 0.62968776 26 -3 26 C-3 26.66 -3 27.32 -3 28 C-9.27729654 28.44837832 -12.76842635 26.50388659 -17.875 23.0625 C-20.72243901 18.95883789 -20.75433926 15.87360128 -20.56640625 10.95703125 C-19.70627048 6.46652932 -17.51857494 3.81668305 -14 1 C-9.80181823 -1.09909088 -4.56069033 -0.54192449 0 0 Z " fill="#0D0D12" transform="translate(186,166)"/>
<path d="M0 0 C0.61875 0.804375 1.2375 1.60875 1.875 2.4375 C3.74164041 5.03874519 3.74164041 5.03874519 6 6 C12.6819232 18.29473868 11.51427784 39.50354631 9 53 C8.34 53.66 7.68 54.32 7 55 C6.17074687 58.09558889 5.5317098 61.21046891 4.87890625 64.34765625 C4.44384766 65.66056641 4.44384766 65.66056641 4 67 C2.515 67.495 2.515 67.495 1 68 C0.41779265 69.87446133 0.41779265 69.87446133 0 72 C-1.05078125 73.88671875 -1.05078125 73.88671875 -2.3125 75.6875 C-2.72113281 76.28949219 -3.12976563 76.89148438 -3.55078125 77.51171875 C-5 79 -5 79 -7.02734375 79.484375 C-9.12412795 79.81860039 -9.12412795 79.81860039 -10.265625 81.62890625 C-10.59046875 82.26699219 -10.9153125 82.90507812 -11.25 83.5625 C-11.8275 84.696875 -12.405 85.83125 -13 87 C-13.66 87 -14.32 87 -15 87 C-15 87.66 -15 88.32 -15 89 C-16.65 89 -18.3 89 -20 89 C-20.144375 89.639375 -20.28875 90.27875 -20.4375 90.9375 C-21 93 -21 93 -22 94 C-22.80962605 100.30446513 -21.90794221 103.87082585 -18 109 C-18 109.99 -18 110.98 -18 112 C-17.34 112 -16.68 112 -16 112 C-15.67 113.65 -15.34 115.3 -15 117 C-14.34 117 -13.68 117 -13 117 C-11.72746564 120.64793184 -10.67170806 124.1936543 -10 128 C-12.375 128.625 -12.375 128.625 -15 129 C-15.66 128.34 -16.32 127.68 -17 127 C-18.64991582 126.29289322 -20.31562256 125.62056011 -22 125 C-18.94736336 124.01879536 -17.05263664 124.01879536 -14 125 C-14.66 122.69 -15.32 120.38 -16 118 C-16.99 118 -17.98 118 -19 118 C-19.26554687 117.24074219 -19.53109375 116.48148437 -19.8046875 115.69921875 C-20.15789062 114.70535156 -20.51109375 113.71148437 -20.875 112.6875 C-21.22304688 111.70136719 -21.57109375 110.71523438 -21.9296875 109.69921875 C-22.95305924 106.84405623 -22.95305924 106.84405623 -25 104 C-25.625 101.75 -25.625 101.75 -26 99 C-26.20625 97.88625 -26.4125 96.7725 -26.625 95.625 C-25.88324982 91.32284894 -25.1173286 90.91429698 -21.75 88.375 C-20.925 87.7975 -20.1 87.22 -19.25 86.625 C-16.62408517 84.72850596 -14.91453355 82.59829554 -13 80 C-10.375 77.1875 -10.375 77.1875 -8 75 C-7.34 75 -6.68 75 -6 75 C-5.9175 74.2575 -5.835 73.515 -5.75 72.75 C-5 70 -5 70 -3.18359375 68.29296875 C-0.4212735 65.39228541 1.06845067 62.17096943 2.6875 58.5625 C2.99494141 57.90701172 3.30238281 57.25152344 3.61914062 56.57617188 C7.19681669 48.77104488 7.21216774 41.7727397 7.25 33.3125 C7.270625 32.17876953 7.29125 31.04503906 7.3125 29.87695312 C7.35072972 21.58588207 6.68956884 14.03435326 2 7 C2 6.01 2 5.02 2 4 C1.34 4 0.68 4 0 4 C0 2.68 0 1.36 0 0 Z " fill="#2C2C30" transform="translate(400,261)"/>
<path d="M0 0 C5.82071622 -0.02464638 11.64140234 -0.0428343 17.4621582 -0.05493164 C19.44393441 -0.05997267 21.42570689 -0.06680538 23.4074707 -0.07543945 C26.24952109 -0.08751515 29.09152247 -0.09323045 31.93359375 -0.09765625 C32.82525742 -0.10281754 33.71692108 -0.10797882 34.63560486 -0.11329651 C36.75740601 -0.11349177 38.8791078 -0.0621003 41 0 C41.495 0.495 41.495 0.495 42 1 C43.67884238 1.3931648 45.36850045 1.74085452 47.0625 2.0625 C47.98160156 2.23910156 48.90070313 2.41570312 49.84765625 2.59765625 C50.55792969 2.73042969 51.26820313 2.86320312 52 3 C52 3.66 52 4.32 52 5 C54.31 5.33 56.62 5.66 59 6 C59 6.66 59 7.32 59 8 C59.62648438 7.97679688 60.25296875 7.95359375 60.8984375 7.9296875 C61.71570313 7.91164063 62.53296875 7.89359375 63.375 7.875 C64.18710937 7.85179688 64.99921875 7.82859375 65.8359375 7.8046875 C68 8 68 8 70 10 C71.98821313 10.39764263 73.98944339 10.73775349 76 11 C76 11.66 76 12.32 76 13 C76.556875 13.0825 77.11375 13.165 77.6875 13.25 C80 14 80 14 82.375 15.9375 C85.20568423 18.16160904 87.58459747 18.96052966 91 20 C91.99 20.66 92.98 21.32 94 22 C93.67 22.66 93.34 23.32 93 24 C92.34773438 23.65066406 91.69546875 23.30132812 91.0234375 22.94140625 C86.36304875 20.51497966 82.32863053 18.42068136 77 18 C77 17.34 77 16.68 77 16 C76.13375 15.7525 75.2675 15.505 74.375 15.25 C71 14 71 14 68.1875 11.9375 C64.62268691 9.77065283 62.42185578 9.56013122 58.3671875 9.2734375 C53.51188415 8.71259388 48.93849991 6.78136231 44.42822266 4.96337891 C40.1590603 3.76368409 36.31946633 3.73098838 31.91015625 3.76953125 C30.61603065 3.77021858 30.61603065 3.77021858 29.29576111 3.7709198 C27.47784036 3.77392996 25.6599219 3.78177906 23.84204102 3.79418945 C21.07493845 3.81241806 18.30817195 3.81469903 15.54101562 3.81445312 C13.7682263 3.81937039 11.99543923 3.82519962 10.22265625 3.83203125 C9.4026564 3.83314407 8.58265656 3.8342569 7.73780823 3.83540344 C-0.14446791 3.44359576 -0.14446791 3.44359576 -7 6 C-8.68138899 6.32504884 -10.37065381 6.60970362 -12.0625 6.875 C-17.05107819 7.74089311 -21.31829217 9.09557648 -26 11 C-27.99640639 11.67735217 -29.99504414 12.34838935 -32 13 C-32 11 -32 11 -30.9375 9.375 C-28.03661182 7.31630516 -25.45519943 7.80442267 -22 8 C-22 7.34 -22 6.68 -22 6 C-16.555 5.505 -16.555 5.505 -11 5 C-11 4.34 -11 3.68 -11 3 C-8.59454362 1.79727181 -7.05003047 1.89928528 -4.375 1.9375 C-3.14910156 1.95103516 -3.14910156 1.95103516 -1.8984375 1.96484375 C-0.95871094 1.98224609 -0.95871094 1.98224609 0 2 C0 1.34 0 0.68 0 0 Z " fill="#353539" transform="translate(197,119)"/>
<path d="M0 0 C3.85040071 1.2834669 3.96056624 2.5661627 6 6 C7.85027276 8.19322949 9.84930842 10.21933129 11.875 12.25 C12.39191406 12.79140625 12.90882813 13.3328125 13.44140625 13.890625 C16.5438989 17.01656218 18.63223338 18.46772737 23 19 C23.33 19.66 23.66 20.32 24 21 C24.99 21.33 25.98 21.66 27 22 C27 22.66 27 23.32 27 24 C28.32 24 29.64 24 31 24 C31 24.66 31 25.32 31 26 C32.11375 26.28875 33.2275 26.5775 34.375 26.875 C38 28 38 28 40 30 C42.33725887 30.59210558 44.69567166 31.10261779 47.0625 31.5625 C53.90277778 32.90277778 53.90277778 32.90277778 55 34 C64.37033907 35.91150326 73.61574184 36.29386566 83.13598633 36.20581055 C85.2242415 36.18717207 87.31205966 36.18530436 89.40039062 36.18554688 C96.3004546 36.32790899 96.3004546 36.32790899 103 35 C104.39439664 34.93334624 105.79169875 34.91461801 107.1875 34.9375 C108.445625 34.958125 109.70375 34.97875 111 35 C111 35.66 111 36.32 111 37 C104.28176159 38.56859415 97.98052618 39.28926768 91.08984375 39.23046875 C90.19632706 39.23001053 89.30281036 39.22955231 88.38221741 39.2290802 C86.51594698 39.22608586 84.6496784 39.21828557 82.78344727 39.20581055 C79.91348555 39.18734549 77.04384354 39.18530268 74.17382812 39.18554688 C72.35416385 39.1806384 70.53450177 39.17481303 68.71484375 39.16796875 C67.85455063 39.16685593 66.99425751 39.1657431 66.1078949 39.16459656 C60.11611623 39.11611623 60.11611623 39.11611623 59 38 C57.53006335 37.64662129 56.04808057 37.34292941 54.5625 37.0625 C53.66917969 36.89105469 52.77585937 36.71960938 51.85546875 36.54296875 C50.91316406 36.36378906 49.97085938 36.18460937 49 36 C47.12461059 35.62695231 45.24958746 35.25205682 43.375 34.875 C42.53710938 34.70742188 41.69921875 34.53984375 40.8359375 34.3671875 C39.92714844 34.18542969 39.92714844 34.18542969 39 34 C39 33.34 39 32.68 39 32 C37.02 31.67 35.04 31.34 33 31 C33 30.34 33 29.68 33 29 C32.236875 28.87625 31.47375 28.7525 30.6875 28.625 C28 28 28 28 25 26 C25 25.01 25 24.02 25 23 C21.73454239 21.11608215 18.71888239 20.50712033 15 20 C15 19.34 15 18.68 15 18 C14.34 18 13.68 18 13 18 C12.10551671 16.62387186 11.21575669 15.24448412 10.34765625 13.8515625 C8.16495026 10.85271427 5.42406335 8.44004369 2.70703125 5.9296875 C0.91280904 3.90143631 0.39368863 2.64417734 0 0 Z " fill="#7B7B7E" transform="translate(230,332)"/>
<path d="M0 0 C1.27617187 0.00483398 1.27617187 0.00483398 2.578125 0.00976562 C3.46757812 0.01814453 4.35703125 0.02652344 5.2734375 0.03515625 C6.170625 0.03966797 7.0678125 0.04417969 7.9921875 0.04882812 C10.21100398 0.06063034 12.42968768 0.0770947 14.6484375 0.09765625 C14.6484375 0.75765625 14.6484375 1.41765625 14.6484375 2.09765625 C15.75960937 2.06285156 16.87078125 2.02804688 18.015625 1.9921875 C34.3897102 1.63506861 34.3897102 1.63506861 41.6484375 5.09765625 C42.6384375 6.08765625 42.6384375 6.08765625 43.6484375 7.09765625 C45.15020814 7.74776112 46.67506281 8.3453197 48.2109375 8.91015625 C61.66540098 14.13158321 61.66540098 14.13158321 63.6484375 18.09765625 C65.28986713 19.13856285 66.95555965 20.14269951 68.6484375 21.09765625 C67.1634375 21.59265625 67.1634375 21.59265625 65.6484375 22.09765625 C65.6484375 21.43765625 65.6484375 20.77765625 65.6484375 20.09765625 C64.3284375 20.09765625 63.0084375 20.09765625 61.6484375 20.09765625 C61.6484375 19.10765625 61.6484375 18.11765625 61.6484375 17.09765625 C59.9984375 16.76765625 58.3484375 16.43765625 56.6484375 16.09765625 C56.6484375 15.43765625 56.6484375 14.77765625 56.6484375 14.09765625 C55.2871875 13.94296875 55.2871875 13.94296875 53.8984375 13.78515625 C50.6484375 13.09765625 50.6484375 13.09765625 48.84375 11.68359375 C46.10172939 9.70270342 43.51846923 8.96933205 40.2734375 8.03515625 C33.69933481 6.11835113 33.69933481 6.11835113 31.08154297 5.05395508 C26.48169191 3.77265678 22.18212114 3.81144331 17.4296875 3.83203125 C16.45358521 3.8301178 15.47748291 3.82820435 14.47180176 3.82623291 C12.41430401 3.82487588 10.35679756 3.82853853 8.29931641 3.83691406 C5.15898311 3.8476203 2.01922185 3.83700225 -1.12109375 3.82421875 C-3.12500126 3.82554043 -5.12890841 3.828103 -7.1328125 3.83203125 C-8.06734253 3.82798279 -9.00187256 3.82393433 -9.96472168 3.81976318 C-14.86414806 3.85481828 -18.73013671 4.29421568 -23.3515625 6.09765625 C-24.5065625 6.22140625 -25.6615625 6.34515625 -26.8515625 6.47265625 C-30.94395612 7.20344082 -32.93943955 8.75600324 -36.3515625 11.09765625 C-40.89662364 13.16425003 -45.47713232 14.98574706 -50.3515625 16.09765625 C-46.8428437 13.0017279 -43.85958851 11.35571002 -39.3515625 10.09765625 C-39.3515625 9.10765625 -39.3515625 8.11765625 -39.3515625 7.09765625 C-38.3409375 6.97390625 -37.3303125 6.85015625 -36.2890625 6.72265625 C-31.52314872 5.966162 -27.08321033 4.73703391 -22.55859375 3.06640625 C-19.1580685 2.03920739 -16.14261749 1.7268954 -12.6015625 1.53515625 C-8.14952049 1.2861265 -4.38414842 -0.02922766 0 0 Z " fill="#7B7B7E" transform="translate(308.3515625,215.90234375)"/>
<path d="M0 0 C2 3 2 3 2 7 C0.83654053 7.03963867 -0.32691895 7.07927734 -1.52563477 7.12011719 C-5.91555552 7.27430714 -10.30432525 7.45138267 -14.69311523 7.63476562 C-16.57894882 7.71050062 -18.46503013 7.7803398 -20.35131836 7.84375 C-40.53254363 8.49356134 -40.53254363 8.49356134 -59 16 C-62.38583255 17.12727363 -65.79765956 18.07580407 -69.234375 19.03515625 C-72.13355709 19.68611616 -72.13355709 19.68611616 -73 22 C-75.90259811 23.3749149 -77.76138705 24 -81 24 C-81 24.66 -81 25.32 -81 26 C-82.32 26 -83.64 26 -85 26 C-83.84807997 22.5442399 -83.08865366 21.80171463 -80 20 C-77.25 19.8125 -77.25 19.8125 -75 20 C-75 19.34 -75 18.68 -75 18 C-71.28026121 15.15549386 -68.62609198 14.6772494 -64 15 C-64 14.34 -64 13.68 -64 13 C-58.47239641 10.89424625 -53.93002267 9.62148791 -48 10 C-48 9.01 -48 8.02 -48 7 C-47.16021606 6.96241577 -47.16021606 6.96241577 -46.3034668 6.92407227 C-43.76458695 6.80796255 -41.22606447 6.6853042 -38.6875 6.5625 C-37.36588867 6.50352539 -37.36588867 6.50352539 -36.01757812 6.44335938 C-34.74624023 6.38051758 -34.74624023 6.38051758 -33.44921875 6.31640625 C-32.66893311 6.27974854 -31.88864746 6.24309082 -31.0847168 6.20532227 C-28.80670899 6.05874737 -28.80670899 6.05874737 -26 5 C-24.0079697 4.91708047 -22.01326287 4.89261823 -20.01953125 4.90234375 C-18.85615234 4.90556641 -17.69277344 4.90878906 -16.49414062 4.91210938 C-15.27919922 4.92048828 -14.06425781 4.92886719 -12.8125 4.9375 C-11.58595703 4.94201172 -10.35941406 4.94652344 -9.09570312 4.95117188 C-6.06375332 4.96296935 -3.03190094 4.97943079 0 5 C0 3.35 0 1.7 0 0 Z " fill="#A5A5A7" transform="translate(327,192)"/>
<path d="M0 0 C0.33 0 0.66 0 1 0 C0.54177532 3.46941546 0.10868317 6.67395049 -1 10 C-1.66 10 -2.32 10 -3 10 C-3 10.99 -3 11.98 -3 13 C-3.99 13 -4.98 13 -6 13 C-5.896875 13.66 -5.79375 14.32 -5.6875 15 C-6.0761351 18.73089693 -7.53404184 20.65925621 -9.7109375 23.64453125 C-13.75861489 31.04074175 -13.30412754 39.11668777 -13.25 47.3125 C-13.25773437 48.47201172 -13.26546875 49.63152344 -13.2734375 50.82617188 C-13.25895132 57.26890145 -12.80484861 63.28703092 -11.42871094 69.58666992 C-10.98121373 72.10575302 -10.92828304 74.44693332 -11 77 C-10.34 77 -9.68 77 -9 77 C-9 79.64 -9 82.28 -9 85 C-16.56481916 75.8515697 -15.47125433 62.72209631 -15.39111328 51.49926758 C-15.37496668 48.80694407 -15.39106728 46.11610746 -15.41015625 43.42382812 C-15.4081746 41.68489258 -15.40433255 39.94595794 -15.3984375 38.20703125 C-15.40451019 37.4161763 -15.41058289 36.62532135 -15.4168396 35.8105011 C-15.34550017 30.06638574 -14.03386087 25.34603746 -12 20 C-11.608125 18.824375 -11.21625 17.64875 -10.8125 16.4375 C-10.4103125 15.2309375 -10.4103125 15.2309375 -10 14 C-9.34 14 -8.68 14 -8 14 C-7.896875 13.43667969 -7.79375 12.87335938 -7.6875 12.29296875 C-6.87100018 9.56975629 -5.6085206 7.65181481 -4 5.3125 C-3.195625 4.13107422 -3.195625 4.13107422 -2.375 2.92578125 C-1 1 -1 1 0 0 Z " fill="#C8C8C9" transform="translate(119,167)"/>
<path d="M0 0 C1.28133064 -0.00855011 1.28133064 -0.00855011 2.58854675 -0.01727295 C4.38787618 -0.02667412 6.18722245 -0.03323738 7.98657227 -0.03710938 C10.71206245 -0.04680949 13.4367958 -0.07787702 16.16210938 -0.109375 C33.12848249 -0.20968147 33.12848249 -0.20968147 40.91796875 3.203125 C40.91796875 3.533125 40.91796875 3.863125 40.91796875 4.203125 C37.94796875 4.203125 34.97796875 4.203125 31.91796875 4.203125 C31.91796875 3.543125 31.91796875 2.883125 31.91796875 2.203125 C8.57148585 2.53393208 8.57148585 2.53393208 -14.70703125 4.140625 C-15.84845581 4.25253174 -15.84845581 4.25253174 -17.01293945 4.36669922 C-18.71393696 4.56524028 -20.40199536 4.87102488 -22.08203125 5.203125 C-22.41203125 5.863125 -22.74203125 6.523125 -23.08203125 7.203125 C-25.39203125 7.203125 -27.70203125 7.203125 -30.08203125 7.203125 C-30.41203125 8.193125 -30.74203125 9.183125 -31.08203125 10.203125 C-32.51928996 10.37185978 -33.95684963 10.53803237 -35.39453125 10.703125 C-36.19503906 10.7959375 -36.99554688 10.88875 -37.8203125 10.984375 C-40.08203125 11.203125 -40.08203125 11.203125 -43.08203125 11.203125 C-36.28387375 6.87702477 -28.80978357 3.57054742 -20.76953125 2.640625 C-17.28559459 2.61297908 -17.28559459 2.61297908 -16.08203125 1.203125 C-10.70765022 0.21648555 -5.4543739 0.02870813 0 0 Z " fill="#B5B5B7" transform="translate(207.08203125,121.796875)"/>
<path d="M0 0 C0.33 0 0.66 0 1 0 C1 11.55 1 23.1 1 35 C-14.48211426 33.27976508 -14.48211426 33.27976508 -16.89453125 31.9765625 C-22.20106917 29.51527404 -29.45881354 30.83343443 -35 32 C-34.505 30.515 -34.505 30.515 -34 29 C-31.39576408 28.97302863 -28.79180756 28.95317511 -26.1875 28.9375 C-25.44951172 28.92912109 -24.71152344 28.92074219 -23.95117188 28.91210938 C-20.70077932 28.89740172 -18.10595105 28.96468298 -15 30 C-12.16831682 30.30294382 -9.33597165 30.50755058 -6.49609375 30.71875 C-4 31 -4 31 -2 32 C-2.24339111 31.17556396 -2.24339111 31.17556396 -2.49169922 30.33447266 C-3.06314701 27.70998476 -3.12955478 25.33419249 -3.1328125 22.6484375 C-3.13410156 21.63265625 -3.13539063 20.616875 -3.13671875 19.5703125 C-3.13285156 18.51585937 -3.12898438 17.46140625 -3.125 16.375 C-3.13080078 14.78171875 -3.13080078 14.78171875 -3.13671875 13.15625 C-3.13542969 12.14304687 -3.13414062 11.12984375 -3.1328125 10.0859375 C-3.13168457 9.1582959 -3.13055664 8.2306543 -3.12939453 7.27490234 C-3 5 -3 5 -2 3 C-1.34 3 -0.68 3 0 3 C0 2.01 0 1.02 0 0 Z " fill="#BEBEBF" transform="translate(199,277)"/>
<path d="M0 0 C0.99 0.33 1.98 0.66 3 1 C3.50089625 2.66965415 3.99032077 4.34434047 4.3984375 6.0390625 C5.03511576 8.11446826 5.90954249 9.66688051 7.0625 11.5 C9.14309419 14.90600975 9.60228047 18.02280468 10 22 C10.33 22.33 10.66 22.66 11 23 C11.125 25.5 11.125 25.5 11 28 C8.88533214 30.11466786 4.18768777 29.21054758 1.2578125 29.24609375 C-0.54818191 29.27903324 -2.35417138 29.31224487 -4.16015625 29.34570312 C-7.01965914 29.3931403 -9.8791421 29.43755685 -12.73876953 29.47680664 C-15.49012546 29.51647824 -18.24106173 29.56803814 -20.9921875 29.62109375 C-22.27668289 29.63371498 -22.27668289 29.63371498 -23.58712769 29.64659119 C-24.38450348 29.66323318 -25.18187927 29.67987518 -26.00341797 29.69702148 C-27.05479446 29.71248268 -27.05479446 29.71248268 -28.12741089 29.72825623 C-30.3322946 29.91136598 -30.3322946 29.91136598 -33 32 C-35.80584248 32.91573728 -38.68701639 33.52649671 -41.5625 34.1875 C-42.34302734 34.37763672 -43.12355469 34.56777344 -43.92773438 34.76367188 C-49.7499357 36.12503215 -49.7499357 36.12503215 -52 35 C-35.10455842 23.60539986 -10.42168068 26.84899411 9 27 C8.52449439 25.51965236 8.04448784 24.04074979 7.5625 22.5625 C7.29566406 21.73878906 7.02882813 20.91507813 6.75390625 20.06640625 C6.17844506 18.03780412 6.17844506 18.03780412 5 17 C4.8453125 15.4840625 4.8453125 15.4840625 4.6875 13.9375 C3.98616681 9.92077353 2.78319584 7.21938321 0.83984375 3.69921875 C0 2 0 2 0 0 Z " fill="#444448" transform="translate(320,172)"/>
<path d="M0 0 C0 2.62113708 -0.31292445 4.50935112 -1 7 C-1.66 7 -2.32 7 -3 7 C-5.07508088 11.80153244 -6.30805917 16.77150124 -7.58789062 21.82421875 C-8.89939711 26.89939711 -8.89939711 26.89939711 -10 28 C-10.08855161 30.6662603 -10.11524673 33.30647114 -10.09765625 35.97265625 C-10.09553383 37.16912025 -10.09553383 37.16912025 -10.09336853 38.38975525 C-10.08775316 40.94737435 -10.07519812 43.50490718 -10.0625 46.0625 C-10.05748698 47.79231645 -10.05292373 49.52213426 -10.04882812 51.25195312 C-10.03777875 55.50133553 -10.02050386 59.75065312 -10 64 C-13.76440006 65.06276314 -16.84199237 64.91422069 -20.75 64.5625 C-21.92046875 64.46066406 -23.0909375 64.35882813 -24.296875 64.25390625 C-25.63492188 64.12822266 -25.63492188 64.12822266 -27 64 C-27 63.34 -27 62.68 -27 62 C-31.95 61.01 -36.9 60.02 -42 59 C-42 58.67 -42 58.34 -42 58 C-40.41705218 57.94562393 -38.83355744 57.90703729 -37.25 57.875 C-36.36828125 57.85179687 -35.4865625 57.82859375 -34.578125 57.8046875 C-31.78658752 58.01616761 -30.47814538 58.76092731 -28 60 C-25.24674025 60.60262111 -22.52362135 61.14476167 -19.75 61.625 C-19.00492188 61.7590625 -18.25984375 61.893125 -17.4921875 62.03125 C-15.662437 62.35966676 -13.83134246 62.6805798 -12 63 C-12.0721875 62.14019531 -12.144375 61.28039062 -12.21875 60.39453125 C-12.85892417 52.24120184 -13.21304764 44.17697135 -13 36 C-12.98324219 35.00226563 -12.96648437 34.00453125 -12.94921875 32.9765625 C-12.40522771 21.13310045 -7.71160804 9.04119563 0 0 Z " fill="#454548" transform="translate(212,249)"/>
<path d="M0 0 C0.33 0 0.66 0 1 0 C1.01458252 0.93682617 1.02916504 1.87365234 1.04418945 2.83886719 C1.10588093 6.37293882 1.18014264 9.90631197 1.26245117 13.43994141 C1.29534946 14.95839778 1.3234859 16.47696616 1.34643555 17.99560547 C1.49264227 27.42127275 2.24578441 35.9071263 5 45 C5.34096541 46.33140207 5.6772956 47.66405436 6 49 C6.99 49 7.98 49 9 49 C9.66 51.31 10.32 53.62 11 56 C10.34 56 9.68 56 9 56 C9 55.01 9 54.02 9 53 C8.071875 52.9071875 8.071875 52.9071875 7.125 52.8125 C5 52 5 52 3.8125 49.875 C3 47 3 47 2.5 43.25 C2.335 42.1775 2.17 41.105 2 40 C1.34 39.67 0.68 39.34 0 39 C-0.37890625 36.96875 -0.37890625 36.96875 -0.5625 34.5 C-0.5792263 31.45018475 -0.5792263 31.45018475 -2 29 C-2.25386802 25.09000576 -2.18523307 21.16725298 -2.1875 17.25 C-2.19974609 16.15171875 -2.21199219 15.0534375 -2.22460938 13.921875 C-2.22654297 12.8596875 -2.22847656 11.7975 -2.23046875 10.703125 C-2.23457764 9.73020508 -2.23868652 8.75728516 -2.24291992 7.75488281 C-1.98493718 4.82917706 -1.22139817 2.6563973 0 0 Z " fill="#59595C" transform="translate(103,203)"/>
<path d="M0 0 C4.29 0 8.58 0 13 0 C13 0.66 13 1.32 13 2 C13.8971875 2.4021875 13.8971875 2.4021875 14.8125 2.8125 C17.18822032 4.10217675 18.41525286 4.80296419 20 7 C20.2172101 9.64996326 20.28351554 12.05076558 20.1875 14.6875 C20.16719727 15.7403418 20.16719727 15.7403418 20.14648438 16.81445312 C20.11120182 18.54329829 20.05739583 20.27174765 20 22 C19.34 22 18.68 22 18 22 C17.67 22.99 17.34 23.98 17 25 C16.34 25 15.68 25 15 25 C14.67 25.99 14.34 26.98 14 28 C8.46841668 30.34028525 2.37755247 29.09855706 -3 27 C-3 26.34 -3 25.68 -3 25 C-3.66 25 -4.32 25 -5 25 C-5.33 23.68 -5.66 22.36 -6 21 C-5.34 21 -4.68 21 -4 21 C-4 21.66 -4 22.32 -4 23 C-2.35 23.33 -0.7 23.66 1 24 C1 24.66 1 25.32 1 26 C5.29 26 9.58 26 14 26 C14 25.34 14 24.68 14 24 C14.66 24 15.32 24 16 24 C16.144375 23.360625 16.28875 22.72125 16.4375 22.0625 C17 20 17 20 18 19 C18.07226502 17.14712498 18.0838122 15.29166122 18.0625 13.4375 C18.05347656 12.42558594 18.04445313 11.41367188 18.03515625 10.37109375 C18.02355469 9.58863281 18.01195312 8.80617187 18 8 C16.68 7.34 15.36 6.68 14 6 C14 5.34 14 4.68 14 4 C13.38125 3.855625 12.7625 3.71125 12.125 3.5625 C10 3 10 3 8 2 C6.45976004 1.93049459 4.91665012 1.91547643 3.375 1.9375 C2.55773437 1.94652344 1.74046875 1.95554688 0.8984375 1.96484375 C0.27195313 1.97644531 -0.35453125 1.98804688 -1 2 C-0.67 1.34 -0.34 0.68 0 0 Z " fill="#8B8B8D" transform="translate(250,165)"/>
<path d="M0 0 C0.61875 0.804375 1.2375 1.60875 1.875 2.4375 C3.74164041 5.03874519 3.74164041 5.03874519 6 6 C11.67174983 16.43601968 10.23521132 29.45250784 10 41 C9.98324219 42.18207031 9.96648437 43.36414063 9.94921875 44.58203125 C9.58375183 53.05042187 9.58375183 53.05042187 6.4375 56.25 C5.633125 56.8275 4.82875 57.405 4 58 C4.21221191 57.28602051 4.42442383 56.57204102 4.64306641 55.83642578 C6.79208194 48.05993547 7.4602922 40.92089719 7.375 32.875 C7.38660156 31.77285156 7.39820313 30.67070312 7.41015625 29.53515625 C7.38124292 21.41051134 6.58937296 13.88405944 2 7 C2 6.01 2 5.02 2 4 C1.34 4 0.68 4 0 4 C0 2.68 0 1.36 0 0 Z " fill="#7A7A7D" transform="translate(400,261)"/>
<path d="M0 0 C0.66 0 1.32 0 2 0 C2.84114171 1.43294498 3.67265687 2.87154405 4.5 4.3125 C5.19609375 5.51326172 5.19609375 5.51326172 5.90625 6.73828125 C7 9 7 9 7 12 C7.66 12 8.32 12 9 12 C9.33 13.65 9.66 15.3 10 17 C10.66 17 11.32 17 12 17 C13.27253436 20.64793184 14.32829194 24.1936543 15 28 C12.625 28.625 12.625 28.625 10 29 C9.34 28.34 8.68 27.68 8 27 C6.35008418 26.29289322 4.68437744 25.62056011 3 25 C6.05263664 24.01879536 7.94736336 24.01879536 11 25 C10.34 22.69 9.68 20.38 9 18 C8.01 18 7.02 18 6 18 C5.73445313 17.24074219 5.46890625 16.48148437 5.1953125 15.69921875 C4.84210938 14.70535156 4.48890625 13.71148437 4.125 12.6875 C3.77695312 11.70136719 3.42890625 10.71523438 3.0703125 9.69921875 C2.04694076 6.84405623 2.04694076 6.84405623 0 4 C0 2.68 0 1.36 0 0 Z " fill="#9E9EA0" transform="translate(375,361)"/>
<path d="M0 0 C0.88141663 -0.00637985 1.76283325 -0.0127597 2.67095947 -0.01933289 C3.62613464 -0.02044571 4.58130981 -0.02155853 5.56542969 -0.02270508 C7.03807281 -0.02769768 7.03807281 -0.02769768 8.54046631 -0.03279114 C10.62186209 -0.03786111 12.70326602 -0.04019944 14.78466797 -0.04003906 C17.96042428 -0.04221789 21.13582898 -0.06035173 24.31152344 -0.0793457 C26.33365767 -0.08228118 28.35579355 -0.08426494 30.37792969 -0.08520508 C31.32500793 -0.09239059 32.27208618 -0.09957611 33.24786377 -0.10697937 C38.16245774 -0.09006667 42.12564618 0.23830478 46.73730469 2.14526367 C48.001875 2.56678711 48.001875 2.56678711 49.29199219 2.99682617 C51.44042969 3.71297201 53.58886719 4.42911784 55.73730469 5.14526367 C55.73730469 5.47526367 55.73730469 5.80526367 55.73730469 6.14526367 C49.68261719 6.34057617 49.68261719 6.34057617 47.73730469 6.14526367 C46.74730469 5.15526367 46.74730469 5.15526367 45.73730469 4.14526367 C43.40912505 3.77765636 41.07546619 3.44284786 38.73730469 3.14526367 C38.24230469 2.65026367 38.24230469 2.65026367 37.73730469 2.14526367 C34.78200965 1.98496679 31.84748012 1.88569039 28.88964844 1.82885742 C27.56000816 1.79768578 27.56000816 1.79768578 26.20350647 1.7658844 C23.36068768 1.70028967 20.51777352 1.64145815 17.67480469 1.58276367 C15.75226862 1.53958787 13.82974235 1.4959739 11.90722656 1.4519043 C7.18401801 1.34459824 2.46071315 1.24335917 -2.26269531 1.14526367 C-2.26269531 1.80526367 -2.26269531 2.46526367 -2.26269531 3.14526367 C-3.96425781 3.36182617 -3.96425781 3.36182617 -5.70019531 3.58276367 C-9.07046732 3.75697845 -9.07046732 3.75697845 -10.26269531 5.14526367 C-12.93328382 5.28641528 -15.58701769 5.18773475 -18.26269531 5.14526367 C-17.93269531 4.48526367 -17.60269531 3.82526367 -17.26269531 3.14526367 C-14.82910156 2.54760742 -14.82910156 2.54760742 -11.82519531 2.08276367 C-7.68581519 1.42974543 -4.16597791 0.02044052 0 0 Z " fill="#D3D3D4" transform="translate(295.2626953125,218.854736328125)"/>
<path d="M0 0 C0 1.70707147 -0.00686613 3.41425671 -0.03515625 5.12109375 C-0.04417969 5.88550781 -0.05320312 6.64992188 -0.0625 7.4375 C-0.07410156 8.19933594 -0.08570313 8.96117187 -0.09765625 9.74609375 C0.00111984 12.02584579 0.17949943 13.86669852 1 16 C1.99 16.33 2.98 16.66 4 17 C4 17.66 4 18.32 4 19 C6.4178712 19.10826289 8.83087556 19.18739789 11.25 19.25 C11.93191406 19.28351563 12.61382812 19.31703125 13.31640625 19.3515625 C16.69082321 19.41708516 18.6437263 19.24853653 21.44140625 17.296875 C23.22264204 14.67189595 23.54846887 13.14498001 23.6875 10 C23.85513689 6.85800574 24.1367364 4.03195021 25 1 C27.634936 3.634936 27.42070895 5.07258046 27.5625 8.75 C27.48944044 14.28260099 27.48944044 14.28260099 25.57421875 17.08984375 C21.47286444 20.68182215 18.24970649 22.08422814 12.765625 21.87890625 C11.60546875 21.77449219 10.4453125 21.67007812 9.25 21.5625 C8.07953125 21.46066406 6.9090625 21.35882813 5.703125 21.25390625 C4.81109375 21.17011719 3.9190625 21.08632813 3 21 C2.67 20.01 2.34 19.02 2 18 C1.34 18 0.68 18 0 18 C0 17.01 0 16.02 0 15 C-0.66 15 -1.32 15 -2 15 C-2.05386629 12.87527424 -2.09273071 10.75016348 -2.125 8.625 C-2.14820313 7.44164062 -2.17140625 6.25828125 -2.1953125 5.0390625 C-2 2 -2 2 0 0 Z " fill="#717174" transform="translate(330,268)"/>
<path d="M0 0 C2.64 0 5.28 0 8 0 C8 0.66 8 1.32 8 2 C8.62648438 1.97679688 9.25296875 1.95359375 9.8984375 1.9296875 C10.71570313 1.91164063 11.53296875 1.89359375 12.375 1.875 C13.18710937 1.85179688 13.99921875 1.82859375 14.8359375 1.8046875 C17 2 17 2 19 4 C20.98821313 4.39764263 22.98944339 4.73775349 25 5 C25 5.66 25 6.32 25 7 C25.556875 7.0825 26.11375 7.165 26.6875 7.25 C29 8 29 8 31.375 9.9375 C34.20568423 12.16160904 36.58459747 12.96052966 40 14 C40.99 14.66 41.98 15.32 43 16 C42.67 16.66 42.34 17.32 42 18 C41.34773438 17.65066406 40.69546875 17.30132812 40.0234375 16.94140625 C35.36304875 14.51497966 31.32863053 12.42068136 26 12 C26 11.34 26 10.68 26 10 C24.700625 9.62875 24.700625 9.62875 23.375 9.25 C20 8 20 8 17.1875 5.9375 C13.59352538 3.75292719 11.22631202 3.49888732 7.125 3.21484375 C4.50856715 2.95031469 2.3585928 2.14125458 0 1 C0 0.67 0 0.34 0 0 Z " fill="#6A6A6D" transform="translate(248,125)"/>
<path d="M0 0 C0.66 0.33 1.32 0.66 2 1 C1.67 1.78375 1.34 2.5675 1 3.375 C-0.27410171 7.99361869 -0.16923936 12.24249356 0 17 C0.66 17 1.32 17 2 17 C2.66 18.32 3.32 19.64 4 21 C9.61 21 15.22 21 21 21 C21 21.99 21 22.98 21 24 C16.48475965 26.33044663 11.95300036 27.19830654 7 26 C3.07891352 23.46211887 -1.11959051 20.46795638 -2.734375 15.94140625 C-3.59333717 9.66340331 -2.72724879 5.56813295 0 0 Z " fill="#5C5C5F" transform="translate(273,265)"/>
<path d="M0 0 C0.33 0.66 0.66 1.32 1 2 C0.53078125 3.02738281 0.0615625 4.05476563 -0.421875 5.11328125 C-2.82396343 11.17185166 -2.37368326 17.59178603 -2.28125 24.00073242 C-2.24992542 26.19271855 -2.24025152 28.38398331 -2.234375 30.57617188 C-2.24640529 38.84755959 -2.24640529 38.84755959 -1 47 C-4.3096758 44.79354947 -4.4561349 44.58182353 -5.1875 40.9375 C-7.52049258 27.27565361 -7.12521451 12.21465344 0 0 Z " fill="#747476" transform="translate(222,268)"/>
<path d="M0 0 C1.15242188 -0.06864258 1.15242188 -0.06864258 2.328125 -0.13867188 C4.58201306 -0.18351567 6.44633822 -0.15131231 8.625 0.4375 C11.1640625 3.46484375 11.1640625 3.46484375 12.625 6.4375 C12.295 7.0975 11.965 7.7575 11.625 8.4375 C10.903125 7.468125 10.18125 6.49875 9.4375 5.5 C5.40402976 1.34933449 0.77600785 1.63048684 -4.7421875 1.4453125 C-5.61101562 1.44273437 -6.47984375 1.44015625 -7.375 1.4375 C-7.67277344 2.0665625 -7.97054688 2.695625 -8.27734375 3.34375 C-9.375 5.4375 -9.375 5.4375 -10.9375 6.9375 C-13.91878858 10.04840982 -13.4862549 14.092088 -13.4375 18.1875 C-13.42847656 19.17234375 -13.41945313 20.1571875 -13.41015625 21.171875 C-13.39855469 21.91953125 -13.38695312 22.6671875 -13.375 23.4375 C-14.365 23.1075 -15.355 22.7775 -16.375 22.4375 C-16.40192484 20.14589681 -16.42136124 17.85420454 -16.4375 15.5625 C-16.44910156 14.28632813 -16.46070313 13.01015625 -16.47265625 11.6953125 C-16.375 8.4375 -16.375 8.4375 -15.375 6.4375 C-14.715 6.4375 -14.055 6.4375 -13.375 6.4375 C-13.045 5.4475 -12.715 4.4575 -12.375 3.4375 C-11.715 3.4375 -11.055 3.4375 -10.375 3.4375 C-10.375 2.7775 -10.375 2.1175 -10.375 1.4375 C-7.11365998 -0.19317001 -3.58069513 0.08624598 0 0 Z " fill="#CFCFD0" transform="translate(284.375,259.5625)"/>
<path d="M0 0 C1.8359375 2.03125 1.8359375 2.03125 3 4 C2.319375 3.835 1.63875 3.67 0.9375 3.5 C-2.52348737 2.91089577 -5.49361795 2.68693017 -9 3 C-11.7905817 4.89816542 -11.7905817 4.89816542 -14 7 C-14.66 7 -15.32 7 -16 7 C-16 11.95 -16 16.9 -16 22 C-15.34 22 -14.68 22 -14 22 C-14.33 22.66 -14.66 23.32 -15 24 C-18.86442642 20.30359212 -18.86442642 20.30359212 -19.203125 17.046875 C-19.33466306 10.6015102 -18.24223706 6.66265651 -14 1.625 C-9.58093188 -0.7686619 -4.91801901 -1.03537242 0 0 Z " fill="#414144" transform="translate(348,261)"/>
<path d="M0 0 C0.99 0.33 1.98 0.66 3 1 C3.50089625 2.66965415 3.99032077 4.34434047 4.3984375 6.0390625 C5.03511576 8.11446826 5.90954249 9.66688051 7.0625 11.5 C9.14309419 14.90600975 9.60228047 18.02280468 10 22 C10.33 22.33 10.66 22.66 11 23 C11 24.65 11 26.3 11 28 C2.09 28 -6.82 28 -16 28 C-16 27.67 -16 27.34 -16 27 C-7.75 27 0.5 27 9 27 C7.70164931 21.56635688 7.70164931 21.56635688 5 17 C4.896875 15.989375 4.79375 14.97875 4.6875 13.9375 C3.98616681 9.92077353 2.78319584 7.21938321 0.83984375 3.69921875 C0 2 0 2 0 0 Z " fill="#5F5F63" transform="translate(320,172)"/>
<path d="M0 0 C6.23258551 0.2770038 9.86386071 1.23349786 15 5 C18.2249208 6.24324147 18.2249208 6.24324147 21 7 C21 7.66 21 8.32 21 9 C22.65 9 24.3 9 26 9 C26 9.66 26 10.32 26 11 C26.62648438 11.19335938 27.25296875 11.38671875 27.8984375 11.5859375 C28.71570313 11.84632813 29.53296875 12.10671875 30.375 12.375 C31.18710937 12.63023437 31.99921875 12.88546875 32.8359375 13.1484375 C35 14 35 14 37 16 C31.21537084 15.39109167 26.30999228 13.22152738 21 11 C19.12623492 10.24692003 17.25128025 9.49679143 15.375 8.75 C13.91666667 8.16666667 12.45833333 7.58333333 11 7 C11 6.34 11 5.68 11 5 C10.28972656 4.80664062 9.57945312 4.61328125 8.84765625 4.4140625 C7.46900391 4.02347656 7.46900391 4.02347656 6.0625 3.625 C5.14597656 3.36976563 4.22945313 3.11453125 3.28515625 2.8515625 C1 2 1 2 0 0 Z " fill="#939395" transform="translate(341,369)"/>
<path d="M0 0 C0 0.33 0 0.66 0 1 C-1.98 1 -3.96 1 -6 1 C-6 0.34 -6 -0.32 -6 -1 C-21.51 -1 -37.02 -1 -53 -1 C-53 -1.33 -53 -1.66 -53 -2 C-51.99098633 -2.02505615 -50.98197266 -2.0501123 -49.94238281 -2.07592773 C-46.19258304 -2.17022409 -42.44295892 -2.27039021 -38.69335938 -2.37231445 C-37.07165643 -2.41557931 -35.44991042 -2.45726028 -33.828125 -2.49731445 C-31.49465973 -2.55522214 -29.16140957 -2.61885698 -26.828125 -2.68359375 C-26.10506165 -2.70030624 -25.38199829 -2.71701874 -24.63702393 -2.73423767 C-6.55757536 -3.26421529 -6.55757536 -3.26421529 0 0 Z " fill="#3A3A3E" transform="translate(350,373)"/>
<path d="M0 0 C7.31768364 -0.12616696 7.31768364 -0.12616696 10.69213867 0.49780273 C14.26368107 1.04003188 17.64980785 1.12954865 21.26171875 1.1328125 C22.27042778 1.13424759 22.27042778 1.13424759 23.29951477 1.13571167 C24.71050104 1.13638804 26.12149052 1.13457188 27.5324707 1.13037109 C29.6916396 1.12498968 31.8506029 1.13034737 34.00976562 1.13671875 C35.38541712 1.13605837 36.7610685 1.13477802 38.13671875 1.1328125 C39.38155029 1.13168457 40.62638184 1.13055664 41.90893555 1.12939453 C45.03741687 1.14101279 45.03741687 1.14101279 48 0 C49.39439664 -0.06665376 50.79169875 -0.08538199 52.1875 -0.0625 C54.0746875 -0.0315625 54.0746875 -0.0315625 56 0 C56 0.66 56 1.32 56 2 C50.79924006 3.05777274 45.78929928 3.16115548 40.5078125 3.16796875 C39.60304169 3.17129715 38.69827087 3.17462555 37.76608276 3.17805481 C35.85822048 3.18310119 33.95034942 3.18546384 32.04248047 3.18530273 C29.14145195 3.18748761 26.24080503 3.20566332 23.33984375 3.22460938 C21.47916796 3.22754419 19.61849037 3.2295284 17.7578125 3.23046875 C16.46993332 3.24124702 16.46993332 3.24124702 15.15603638 3.25224304 C9.77568618 3.2320782 5.17070959 2.50325181 0 1 C0 0.67 0 0.34 0 0 Z " fill="#C3C3C4" transform="translate(285,367)"/>
<path d="M0 0 C0 4.24645065 -1.81750806 6.38524772 -4 10 C-4.66 10 -5.32 10 -6 10 C-6 10.66 -6 11.32 -6 12 C-7.65 12 -9.3 12 -11 12 C-11.12375 12.515625 -11.2475 13.03125 -11.375 13.5625 C-12.18641628 16.72702351 -13.0945913 19.86124985 -14 23 C-14.99 22.67 -15.98 22.34 -17 22 C-17.5625 18.9375 -17.5625 18.9375 -17 15 C-14.90482257 12.92239219 -12.67192235 11.32050449 -10.25390625 9.6328125 C-7.64288831 7.74129517 -5.92604512 5.56806016 -4 3 C-1.75 1.1875 -1.75 1.1875 0 0 Z " fill="#525255" transform="translate(391,338)"/>
<path d="M0 0 C1.98 0.66 3.96 1.32 6 2 C6.33 3.65 6.66 5.3 7 7 C7.66 7 8.32 7 9 7 C9 10.96 9 14.92 9 19 C8.34 19 7.68 19 7 19 C6.7525 19.763125 6.505 20.52625 6.25 21.3125 C4.87869328 24.26080945 3.7648921 25.35834532 1 27 C0.34 27 -0.32 27 -1 27 C-1 27.66 -1 28.32 -1 29 C-3.97 29 -6.94 29 -10 29 C-10.33 28.34 -10.66 27.68 -11 27 C-8.36 27.33 -5.72 27.66 -3 28 C-3 27.34 -3 26.68 -3 26 C-2.071875 25.62875 -1.14375 25.2575 -0.1875 24.875 C3.64508431 22.62053864 4.55775945 21.1664727 6 17 C6.40489539 12.38419253 5.97064987 9.1731409 4 5 C3.67 4.01 3.34 3.02 3 2 C2.01 1.67 1.02 1.34 0 1 C0 0.67 0 0.34 0 0 Z " fill="#ACACAE" transform="translate(186,166)"/>
<path d="M0 0 C2.890625 0.41796875 2.890625 0.41796875 6.015625 2.60546875 C9.38752492 7.66331864 10.42950373 11.27475123 9.890625 17.41796875 C8.59766376 20.84431603 7.82804249 22.8287349 4.703125 24.79296875 C4.105 24.99921875 3.506875 25.20546875 2.890625 25.41796875 C2.890625 24.42796875 2.890625 23.43796875 2.890625 22.41796875 C3.550625 22.41796875 4.210625 22.41796875 4.890625 22.41796875 C5.220625 21.09796875 5.550625 19.77796875 5.890625 18.41796875 C6.550625 18.41796875 7.210625 18.41796875 7.890625 18.41796875 C7.890625 15.11796875 7.890625 11.81796875 7.890625 8.41796875 C6.900625 8.08796875 5.910625 7.75796875 4.890625 7.41796875 C4.890625 6.09796875 4.890625 4.77796875 4.890625 3.41796875 C-0.55726088 1.60200679 -6.57323794 1.98928822 -12.109375 3.41796875 C-8.85269224 -0.8044889 -4.96085598 -0.12581881 0 0 Z " fill="#424246" transform="translate(183.109375,165.58203125)"/>
<path d="M0 0 C-2.37530618 3.56295928 -3.10810133 3.53677481 -7.125 4.4375 C-11.51901733 5.52739986 -15.17901682 6.9525891 -19.15234375 9.08203125 C-22.94410929 10.9658894 -26.74957408 12 -31 12 C-31.36923077 7.44615385 -31.36923077 7.44615385 -29.5 5.1875 C-28.7575 4.5996875 -28.7575 4.5996875 -28 4 C-28.33 5.98 -28.66 7.96 -29 10 C-23.93585915 8.70316495 -19.45548885 6.92022756 -14.8125 4.5 C-14.20986328 4.19191406 -13.60722656 3.88382812 -12.98632812 3.56640625 C-10.54938666 2.31984783 -8.11982708 1.06513677 -5.71484375 -0.2421875 C-3.4730417 -1.23286995 -2.2595156 -0.80696986 0 0 Z " fill="#848487" transform="translate(164,310)"/>
<path d="M0 0 C-1.98 0.99 -1.98 0.99 -4 2 C-4 2.99 -4 3.98 -4 5 C-4.99 5 -5.98 5 -7 5 C-7.185625 5.598125 -7.37125 6.19625 -7.5625 6.8125 C-9.67202331 10.02264417 -12.49295852 10.57340686 -16 12 C-20.08363848 14.81965514 -22.93631396 18.14850898 -26 22 C-26 17.38153156 -23.10801858 15.21025603 -20 12 C-16.24744217 8.4531745 -12.45480262 5.62047213 -8 3 C-7.67 2.34 -7.34 1.68 -7 1 C-2.44155844 -1.22077922 -2.44155844 -1.22077922 0 0 Z " fill="#7F7F82" transform="translate(258,233)"/>
<path d="M0 0 C2 3 2 3 2 7 C-14.335 7.495 -14.335 7.495 -31 8 C-28.48627686 5.48627686 -26.79469483 5.03307968 -23.27270508 4.88647461 C-22.19915771 4.89171143 -21.12561035 4.89694824 -20.01953125 4.90234375 C-18.85615234 4.90556641 -17.69277344 4.90878906 -16.49414062 4.91210938 C-15.27919922 4.92048828 -14.06425781 4.92886719 -12.8125 4.9375 C-11.58595703 4.94201172 -10.35941406 4.94652344 -9.09570312 4.95117188 C-6.06375332 4.96296935 -3.03190094 4.97943079 0 5 C0 3.35 0 1.7 0 0 Z " fill="#A1A1A3" transform="translate(327,192)"/>
<path d="M0 0 C1.32 0.33 2.64 0.66 4 1 C2.2126038 2.33905267 0.41995047 3.67109066 -1.375 5 C-2.37273437 5.7425 -3.37046875 6.485 -4.3984375 7.25 C-7 9 -7 9 -9 9 C-9.33 9.99 -9.66 10.98 -10 12 C-11.40683637 13.13886753 -12.81585862 14.27519141 -14.23828125 15.39453125 C-17.09958287 18.00205889 -19.28791476 21.10263079 -21.58203125 24.20703125 C-22.04996094 24.79871094 -22.51789063 25.39039063 -23 26 C-23.33 26 -23.66 26 -24 26 C-24 24.35 -24 22.7 -24 21 C-23.360625 20.7525 -22.72125 20.505 -22.0625 20.25 C-19.81258459 19.18437567 -19.81258459 19.18437567 -19.25 16.875 C-19.1675 16.25625 -19.085 15.6375 -19 15 C-18.34 15 -17.68 15 -17 15 C-16.67 14.01 -16.34 13.02 -16 12 C-15.34 12 -14.68 12 -14 12 C-14 11.34 -14 10.68 -14 10 C-12.68 10 -11.36 10 -10 10 C-10 9.34 -10 8.68 -10 8 C-8.01310269 6.64721885 -6.01254782 5.31431695 -4 4 C-3.67 3.34 -3.34 2.68 -3 2 C-2.01 2 -1.02 2 0 2 C0 1.34 0 0.68 0 0 Z " fill="#939395" transform="translate(237,221)"/>
<path d="M0 0 C3.85040071 1.2834669 3.96056624 2.5661627 6 6 C7.85027276 8.19322949 9.84930842 10.21933129 11.875 12.25 C12.39191406 12.79140625 12.90882813 13.3328125 13.44140625 13.890625 C16.5438989 17.01656218 18.63223338 18.46772737 23 19 C23.33 19.66 23.66 20.32 24 21 C24.99 21.33 25.98 21.66 27 22 C27 22.66 27 23.32 27 24 C28.32 24 29.64 24 31 24 C31 24.66 31 25.32 31 26 C29.02 25.67 27.04 25.34 25 25 C25 24.34 25 23.68 25 23 C21.73454239 21.11608215 18.71888239 20.50712033 15 20 C15 19.34 15 18.68 15 18 C14.34 18 13.68 18 13 18 C12.10551671 16.62387186 11.21575669 15.24448412 10.34765625 13.8515625 C8.16495026 10.85271427 5.42406335 8.44004369 2.70703125 5.9296875 C0.91280904 3.90143631 0.39368863 2.64417734 0 0 Z " fill="#949496" transform="translate(230,332)"/>
<path d="M0 0 C0.66 0 1.32 0 2 0 C4.23595471 4.47190942 3.22993514 10.58912453 3.25 15.5 C3.270625 16.76199219 3.29125 18.02398437 3.3125 19.32421875 C3.31765625 20.52691406 3.3228125 21.72960937 3.328125 22.96875 C3.3374707 24.07669922 3.34681641 25.18464844 3.35644531 26.32617188 C3.23881836 27.20853516 3.12119141 28.09089844 3 29 C2.01 29.66 1.02 30.32 0 31 C0 20.77 0 10.54 0 0 Z " fill="#27272C" transform="translate(409,279)"/>
<path d="M0 0 C1.16337891 0.00322266 2.32675781 0.00644531 3.52539062 0.00976562 C4.74033203 0.01814453 5.95527344 0.02652344 7.20703125 0.03515625 C8.43357422 0.03966797 9.66011719 0.04417969 10.92382812 0.04882812 C13.95577793 0.0606256 16.98763031 0.07708704 20.01953125 0.09765625 C20.01953125 0.75765625 20.01953125 1.41765625 20.01953125 2.09765625 C20.67953125 2.42765625 21.33953125 2.75765625 22.01953125 3.09765625 C19.37953125 3.09765625 16.73953125 3.09765625 14.01953125 3.09765625 C14.01953125 2.43765625 14.01953125 1.77765625 14.01953125 1.09765625 C10.89416488 1.23623466 7.76934908 1.38475194 4.64453125 1.53515625 C3.75507813 1.57447266 2.865625 1.61378906 1.94921875 1.65429688 C1.0984375 1.69619141 0.24765625 1.73808594 -0.62890625 1.78125 C-1.41442871 1.81790771 -2.19995117 1.85456543 -3.00927734 1.89233398 C-5.05570371 1.98854725 -5.05570371 1.98854725 -6.98046875 3.09765625 C-9.06019935 3.30448029 -11.14473687 3.46432179 -13.23046875 3.59765625 C-17.54452382 3.87598238 -21.72590675 4.32409952 -25.98046875 5.09765625 C-24.98046875 3.09765625 -24.98046875 3.09765625 -21.98046875 2.09765625 C-18.66028955 1.78959839 -15.33943465 1.58876221 -12.01171875 1.37890625 C-7.8182317 0.98981982 -4.28944966 -0.02092414 0 0 Z " fill="#2B2B2F" transform="translate(308.98046875,214.90234375)"/>
<path d="M0 0 C4.72961327 4.15878361 5.74837055 10.05423959 6.26806641 16.13818359 C6.36546773 19.49328448 6.36058115 22.83143577 6.3125 26.1875 C6.31572266 27.32380859 6.31894531 28.46011719 6.32226562 29.63085938 C6.28487682 35.46011426 5.99582311 40.50552282 4 46 C3.67 46 3.34 46 3 46 C2.95758277 43.66705225 2.95907063 41.33297433 3 39 C3.495 38.505 3.495 38.505 4 38 C4.25391333 34.46569709 4.18523797 30.91733126 4.1875 27.375 C4.19974609 26.38886719 4.21199219 25.40273438 4.22460938 24.38671875 C4.2357586 18.819539 3.76670643 14.27240625 2 9 C1.875 6.0625 1.875 6.0625 2 4 C1.34 4 0.68 4 0 4 C0 2.68 0 1.36 0 0 Z " fill="#CECECF" transform="translate(402,268)"/>
<path d="M0 0 C5.61 0 11.22 0 17 0 C17 0.33 17 0.66 17 1 C15.47632813 1.27263672 15.47632813 1.27263672 13.921875 1.55078125 C6.39452269 2.91805602 -1.04531213 4.40371719 -8.44921875 6.3515625 C-10.95409133 6.98832949 -13.46177255 7.51522142 -16 8 C-16 7.34 -16 6.68 -16 6 C-10.47239641 3.89424625 -5.93002267 2.62148791 0 3 C0 2.01 0 1.02 0 0 Z " fill="#CACACB" transform="translate(279,199)"/>
<path d="M0 0 C0.70189453 0.00451172 1.40378906 0.00902344 2.12695312 0.01367188 C3.85550538 0.02543073 5.58401365 0.04336546 7.3125 0.0625 C6.9825 1.0525 6.6525 2.0425 6.3125 3.0625 C5.9825 2.7325 5.6525 2.4025 5.3125 2.0625 C0.23847475 1.54317862 -4.21306957 1.20241558 -8.6875 3.8125 C-9.6775 4.92625 -9.6775 4.92625 -10.6875 6.0625 C-11.47060547 6.91328125 -11.47060547 6.91328125 -12.26953125 7.78125 C-14.16145441 10.82500517 -14.19709826 13.2544653 -14.375 16.8125 C-14.44074219 17.98296875 -14.50648438 19.1534375 -14.57421875 20.359375 C-14.61160156 21.25140625 -14.64898437 22.1434375 -14.6875 23.0625 C-15.0175 23.0625 -15.3475 23.0625 -15.6875 23.0625 C-15.74134521 20.77108714 -15.78022087 18.47931812 -15.8125 16.1875 C-15.83570313 14.91132813 -15.85890625 13.63515625 -15.8828125 12.3203125 C-15.6875 9.0625 -15.6875 9.0625 -13.6875 7.0625 C-13.0449765 4.99375966 -13.0449765 4.99375966 -12.6875 3.0625 C-12.0275 3.0625 -11.3675 3.0625 -10.6875 3.0625 C-10.6875 2.4025 -10.6875 1.7425 -10.6875 1.0625 C-7.06882441 -0.1437252 -3.76243749 -0.04566918 0 0 Z " fill="#BEBEBF" transform="translate(342.6875,259.9375)"/>
<path d="M0 0 C0 2.62113708 -0.31292445 4.50935112 -1 7 C-1.66 7 -2.32 7 -3 7 C-5.0870389 11.78627587 -6.25189245 16.75364109 -7.41210938 21.82421875 C-7.90234375 23.796875 -7.90234375 23.796875 -9 27 C-9.99 27.33 -10.98 27.66 -12 28 C-11.34954275 23.04413522 -9.98281538 18.6558474 -8.25 14 C-7.89035156 12.97132813 -7.89035156 12.97132813 -7.5234375 11.921875 C-5.73839727 7.10042614 -3.47945892 3.78716617 0 0 Z " fill="#6B6B6E" transform="translate(212,249)"/>
<path d="M0 0 C0.66 0.33 1.32 0.66 2 1 C1.175 1.556875 0.35 2.11375 -0.5 2.6875 C-2.77201534 4.87631478 -3.00150949 6.0146687 -3.33203125 9.2265625 C-3.31422008 12.49669399 -3.21497299 15.73718771 -3 19 C-5.4609375 17.7421875 -5.4609375 17.7421875 -8 16 C-8.52350119 12.75429265 -8.76232666 11.06731434 -8 8 C-5.6875 5.1875 -5.6875 5.1875 -3 3 C-2.401875 2.401875 -1.80375 1.80375 -1.1875 1.1875 C-0.795625 0.795625 -0.40375 0.40375 0 0 Z " fill="#B4B4B5" transform="translate(247,167)"/>
<path d="M0 0 C7.42032684 0.89902694 12.23113574 2.19261312 18 7 C18.99 7.66 19.98 8.32 21 9 C18.69 9 16.38 9 14 9 C14 8.34 14 7.68 14 7 C11.03 6.505 11.03 6.505 8 6 C8 5.34 8 4.68 8 4 C7.236875 3.896875 6.47375 3.79375 5.6875 3.6875 C2.77363954 2.94209384 1.97049603 2.15541061 0 0 Z " fill="#3B3B3F" transform="translate(255,357)"/>
<path d="M0 0 C2.93763949 1.3133723 4.88717347 2.70154561 7.0625 5.0625 C9.16602606 7.34457469 9.93249534 7.97749845 13 9 C13.28875 9.61875 13.5775 10.2375 13.875 10.875 C15.35958123 13.67920898 17.23974247 14.54723288 20 16 C19.67 17.65 19.34 19.3 19 21 C18 18 18 18 18 16 C15.03 15.505 15.03 15.505 12 15 C12 14.34 12 13.68 12 13 C11.01 12.67 10.02 12.34 9 12 C7.97862543 10.34634594 6.98387706 8.67623498 6 7 C4.067332 4.60646501 2.04570486 2.29728022 0 0 Z " fill="#616165" transform="translate(126,276)"/>
<path d="M0 0 C1.35276714 2.70553429 0.5907217 4.04639151 0 7 C-0.12782974 10.70706238 -0.17554079 13.47337764 1 17 C2.65 17.33 4.3 17.66 6 18 C6 18.66 6 19.32 6 20 C8.97 20.33 11.94 20.66 15 21 C15 21.66 15 22.32 15 23 C8.72270346 23.44837832 5.23157365 21.50388659 0.125 18.0625 C-3.11462262 13.39363211 -2.74778396 8.52572989 -2 3 C-1.34 2.01 -0.68 1.02 0 0 Z " fill="#4C4C4F" transform="translate(168,171)"/>
<path d="M0 0 C2.05078125 0.03255208 4.1015625 0.06510417 6.15234375 0.09765625 C6.15234375 0.42765625 6.15234375 0.75765625 6.15234375 1.09765625 C4.45078125 1.31421875 4.45078125 1.31421875 2.71484375 1.53515625 C-0.65542826 1.70937103 -0.65542826 1.70937103 -1.84765625 3.09765625 C-3.52904524 3.42270509 -5.21831006 3.70735987 -6.91015625 3.97265625 C-11.89873444 4.83854936 -16.16594842 6.19323273 -20.84765625 8.09765625 C-22.84406264 8.77500842 -24.84270039 9.4460456 -26.84765625 10.09765625 C-26.84765625 8.09765625 -26.84765625 8.09765625 -25.78515625 6.47265625 C-22.88426807 4.41396141 -20.30285568 4.90207892 -16.84765625 5.09765625 C-16.84765625 4.43765625 -16.84765625 3.77765625 -16.84765625 3.09765625 C-15.84863281 2.96488281 -14.84960938 2.83210938 -13.8203125 2.6953125 C-12.52996094 2.51871094 -11.23960937 2.34210938 -9.91015625 2.16015625 C-8.62238281 1.98613281 -7.33460938 1.81210938 -6.0078125 1.6328125 C-3.29155196 1.17282771 -2.44732208 0.12935106 0 0 Z " fill="#444448" transform="translate(191.84765625,121.90234375)"/>
<path d="M0 0 C7.65008359 1.25411206 13.33319274 4.13640146 20 8 C20.74636719 8.350625 21.49273437 8.70125 22.26171875 9.0625 C24 10 24 10 25 12 C26.64142963 13.0409066 28.30712215 14.04504326 30 15 C29.01 15.33 28.02 15.66 27 16 C27 15.34 27 14.68 27 14 C25.68 14 24.36 14 23 14 C23 13.01 23 12.02 23 11 C20.525 10.505 20.525 10.505 18 10 C18 9.34 18 8.68 18 8 C17.0925 7.896875 16.185 7.79375 15.25 7.6875 C11.81739473 6.96137196 10.71693505 6.07765622 8 4 C5.36687905 2.87660284 2.70478175 1.94667361 0 1 C0 0.67 0 0.34 0 0 Z " fill="#A1A1A3" transform="translate(347,222)"/>
<path d="M0 0 C1.2077558 3.62326739 0.54311128 4.64146369 -1 8 C-1.66 8 -2.32 8 -3 8 C-3 8.99 -3 9.98 -3 11 C-3.99 11 -4.98 11 -6 11 C-5.896875 11.66 -5.79375 12.32 -5.6875 13 C-6.14732242 17.41429526 -8.50741828 20.41246273 -11 24 C-11 15.356024 -4.96169351 6.7519953 0 0 Z " fill="#D0D0D1" transform="translate(119,169)"/>
<path d="M0 0 C0.66 0.33 1.32 0.66 2 1 C1.67 1.33 1.34 1.66 1 2 C0.63039006 3.44956397 0.30340007 4.91014655 0 6.375 C-0.54881592 9.00760137 -1.14727462 11.44182385 -2 14 C-2.14715199 15.62567079 -2.24721867 17.25586857 -2.31640625 18.88671875 C-2.35830078 19.82451172 -2.40019531 20.76230469 -2.44335938 21.72851562 C-2.48267578 22.70498047 -2.52199219 23.68144531 -2.5625 24.6875 C-2.60568359 25.67556641 -2.64886719 26.66363281 -2.69335938 27.68164062 C-2.79941654 30.12095546 -2.90147714 32.56037113 -3 35 C-3.33 35 -3.66 35 -4 35 C-4 26.09 -4 17.18 -4 8 C-3.34 7.67 -2.68 7.34 -2 7 C-1.26924352 4.6859378 -0.59861742 2.35171131 0 0 Z " fill="#25252A" transform="translate(104,194)"/>
<path d="M0 0 C0.66 0 1.32 0 2 0 C2 0.66 2 1.32 2 2 C3.65 2.33 5.3 2.66 7 3 C7 3.66 7 4.32 7 5 C10.96 5 14.92 5 19 5 C18.01 5.33 17.02 5.66 16 6 C16 6.66 16 7.32 16 8 C11.17639811 8.19294408 7.50353262 7.75747614 3 6 C3 5.34 3 4.68 3 4 C2.34 4 1.68 4 1 4 C0.67 2.68 0.34 1.36 0 0 Z " fill="#707073" transform="translate(244,186)"/>
<path d="M0 0 C2.20319677 4.40639354 3.10924981 6.97450871 3 12 C3.66 12 4.32 12 5 12 C6.1577506 15.47325181 6.06866652 18.36067448 6 22 C1.84705064 17.71308453 1.47676991 14.72123887 1 9 C0.67 8.67 0.34 8.34 0 8 C-0.14115161 5.32941149 -0.04247107 2.67567762 0 0 Z " fill="#BEBEC0" transform="translate(219,302)"/>
<path d="M0 0 C1.72509594 3.45019188 1.01129163 7.35668686 0.9375 11.15234375 C0.86144395 14.07655696 0.86144395 14.07655696 2 17 C3.88316159 18.10836423 3.88316159 18.10836423 6 19 C6.99 19.66 7.98 20.32 9 21 C6.69 20.67 4.38 20.34 2 20 C1.8453125 19.0409375 1.8453125 19.0409375 1.6875 18.0625 C1.460625 17.381875 1.23375 16.70125 1 16 C0.01 15.67 -0.98 15.34 -2 15 C-2.3690205 4.44191344 -2.3690205 4.44191344 0 0 Z " fill="#A9A9AB" transform="translate(166,172)"/>
<path d="M0 0 C0 3.51479702 -0.65021767 4.18178057 -2.6875 6.9375 C-5.88686614 11.53611611 -7.92317657 16.27949086 -9.921875 21.49609375 C-11 24 -11 24 -13 26 C-12.40075776 21.80530429 -11.42500059 17.99000166 -10 14 C-9.34 14 -8.68 14 -8 14 C-7.896875 13.43667969 -7.79375 12.87335938 -7.6875 12.29296875 C-6.87100018 9.56975629 -5.6085206 7.65181481 -4 5.3125 C-3.195625 4.13107422 -3.195625 4.13107422 -2.375 2.92578125 C-1 1 -1 1 0 0 Z " fill="#6A6A6D" transform="translate(119,167)"/>
<path d="M0 0 C1.32 0 2.64 0 4 0 C4 0.66 4 1.32 4 2 C4.8353125 2.12375 4.8353125 2.12375 5.6875 2.25 C8 3 8 3 10.375 4.9375 C13.20568423 7.16160904 15.58459747 7.96052966 19 9 C19.99 9.66 20.98 10.32 22 11 C21.67 11.66 21.34 12.32 21 13 C17.66666667 11.33333333 14.33333333 9.66666667 11 8 C10.25234375 7.65710938 9.5046875 7.31421875 8.734375 6.9609375 C7 6 7 6 6 4 C4.02111039 3.27306096 2.02045442 2.60183749 0 2 C0 1.34 0 0.68 0 0 Z " fill="#656568" transform="translate(269,130)"/>
<path d="M0 0 C0.66 0.33 1.32 0.66 2 1 C1.360625 1.598125 0.72125 2.19625 0.0625 2.8125 C-2.20310389 4.90810337 -2.20310389 4.90810337 -3 8 C-3.66 8 -4.32 8 -5 8 C-6.07525194 10.65228812 -7.09456151 13.28368454 -8 16 C-9.32 16 -10.64 16 -12 16 C-10.57139081 11.50891248 -8.06922708 8.53830684 -4.875 5.1875 C-4.40707031 4.68541016 -3.93914062 4.18332031 -3.45703125 3.66601562 C-2.31098175 2.43810545 -1.15634689 1.21821785 0 0 Z " fill="#424246" transform="translate(225,233)"/>
<path d="M0 0 C4.95 0 9.9 0 15 0 C15.33 0.66 15.66 1.32 16 2 C15.21496094 2.01417969 14.42992187 2.02835938 13.62109375 2.04296875 C6.4351338 2.36920251 2.41292329 3.20218163 -3 8 C-2.5359375 7.13375 -2.5359375 7.13375 -2.0625 6.25 C-0.80714968 3.78094132 -0.80714968 3.78094132 0 0 Z " fill="#A7A7A9" transform="translate(170,164)"/>
<path d="M0 0 C3 3 3 3 3.29296875 5.91796875 C3.25816406 6.99691406 3.22335937 8.07585937 3.1875 9.1875 C3.14689453 10.81751953 3.14689453 10.81751953 3.10546875 12.48046875 C3.07066406 13.31191406 3.03585937 14.14335937 3 15 C2.34 15 1.68 15 1 15 C1 15.99 1 16.98 1 18 C-0.98 18.99 -0.98 18.99 -3 20 C-2.505 18.515 -2.505 18.515 -2 17 C-1.34 17 -0.68 17 0 17 C0 11.39 0 5.78 0 0 Z " fill="#3E3E42" transform="translate(295,267)"/>
<path d="M0 0 C18.71511768 -0.63401277 18.71511768 -0.63401277 27 3 C27.33 3.66 27.66 4.32 28 5 C26.58249437 4.88490339 25.16598831 4.75746342 23.75 4.625 C22.96109375 4.55539062 22.1721875 4.48578125 21.359375 4.4140625 C19 4 19 4 17.0078125 2.97265625 C11.81638881 0.45774477 4.44480305 1.85372567 -1 3 C-0.67 2.01 -0.34 1.02 0 0 Z " fill="#A4A4A6" transform="translate(165,306)"/>
<path d="M0 0 C1.37562854 1.28965176 2.70766393 2.62689293 4 4 C4 4.66 4 5.32 4 6 C4.99 6.33 5.98 6.66 7 7 C7 7.99 7 8.98 7 10 C7.66 10 8.32 10 9 10 C10.6875 12.375 10.6875 12.375 12 15 C11.67 15.66 11.34 16.32 11 17 C6.3125 13.484375 6.3125 13.484375 5 12 C5 10.68 5 9.36 5 8 C4.34 8 3.68 8 3 8 C0.25624329 5.04518508 0 4.22528092 0 0 Z " fill="#868689" transform="translate(114,259)"/>
<path d="M0 0 C0 0.66 0 1.32 0 2 C-3.31114834 3.12880057 -6.58978257 4.21302675 -10 5 C-10 5.66 -10 6.32 -10 7 C-12.64 7.66 -15.28 8.32 -18 9 C-14.07000631 4.84543524 -6.26780031 -3.13390016 0 0 Z " fill="#ABABAD" transform="translate(163,135)"/>
<path d="M0 0 C0.75 1.6875 0.75 1.6875 1 4 C-0.32810215 5.67083819 -1.66172696 7.33729713 -3 9 C-3.33592508 11.7104607 -3.33592508 11.7104607 -3 14 C-2.34 13.34 -1.68 12.68 -1 12 C2.125 11.875 2.125 11.875 5 12 C1.57653445 15.14958831 -1.44262737 15.56179109 -6 16 C-5.6060628 10.18942625 -5.03279197 7.41086622 -1 3 C-0.67 2.01 -0.34 1.02 0 0 Z " fill="#C1C1C2" transform="translate(141,304)"/>
<path d="M0 0 C0.33 0 0.66 0 1 0 C1 4.95 1 9.9 1 15 C1.66 15 2.32 15 3 15 C2.67 15.66 2.34 16.32 2 17 C-1.89610738 13.27328859 -1.89610738 13.27328859 -2.16796875 9.94140625 C-2.17441406 9.15636719 -2.18085938 8.37132812 -2.1875 7.5625 C-2.20167969 6.78003906 -2.21585937 5.99757813 -2.23046875 5.19140625 C-2 3 -2 3 0 0 Z " fill="#28282D" transform="translate(331,268)"/>
<path d="M0 0 C1 3 1 3 0.2578125 4.796875 C-0.11601562 5.44140625 -0.48984375 6.0859375 -0.875 6.75 C-2.93630261 10.58828763 -3.63975293 13.67703514 -4 18 C-4.66 18 -5.32 18 -6 18 C-6.33 18.99 -6.66 19.98 -7 21 C-7.40252705 15.63297262 -6.02677675 11.84229912 -4 7 C-3.649375 6.05125 -3.29875 5.1025 -2.9375 4.125 C-2 2 -2 2 0 0 Z " fill="#B9B9BA" transform="translate(226,263)"/>
<path d="M0 0 C1.5 1.25 1.5 1.25 3 3 C3 4.32 3 5.64 3 7 C-3.40140935 6.53444296 -8.26769829 4.85288164 -14 2 C-10.90279155 1.12159004 -9.09354597 1.00564594 -6 2 C-6 2.66 -6 3.32 -6 4 C-3.03 4.495 -3.03 4.495 0 5 C0 3.35 0 1.7 0 0 Z " fill="#DADADB" transform="translate(383,379)"/>
<path d="M0 0 C1.32 0 2.64 0 4 0 C4 0.66 4 1.32 4 2 C5.65 2 7.3 2 9 2 C9 2.99 9 3.98 9 5 C10.32 5.33 11.64 5.66 13 6 C13 6.66 13 7.32 13 8 C13.5775 8.061875 14.155 8.12375 14.75 8.1875 C17.88690987 9.32027301 19.09167504 11.34197595 21 14 C17.41726669 12.34643078 14.19026533 10.32019297 11 8 C11 7.34 11 6.68 11 6 C10.484375 5.9175 9.96875 5.835 9.4375 5.75 C5.95544268 4.67859775 3.12799115 2.86476395 0 1 C0 0.67 0 0.34 0 0 Z " fill="#535357" transform="translate(360,226)"/>
<path d="M0 0 C2.475 0.495 2.475 0.495 5 1 C5 1.66 5 2.32 5 3 C5.99 3 6.98 3 8 3 C10 5.75 10 5.75 12 9 C12.98866506 10.34175973 13.9838154 11.67896002 15 13 C11.12207603 11.38419835 8.28921212 8.75734641 5.25 5.9375 C4.74339844 5.47794922 4.23679687 5.01839844 3.71484375 4.54492188 C2.45382769 3.38757425 1.22393107 2.19649813 0 1 C0 0.67 0 0.34 0 0 Z " fill="#626265" transform="translate(291,143)"/>
<path d="M0 0 C0.66 0 1.32 0 2 0 C2.81756238 2.06049855 3.62884734 4.12348853 4.4375 6.1875 C5.11619141 7.91033203 5.11619141 7.91033203 5.80859375 9.66796875 C6.81093301 12.47123233 7.52012795 15.07112576 8 18 C7.34 18 6.68 18 6 18 C5.73445313 17.24074219 5.46890625 16.48148437 5.1953125 15.69921875 C4.84210938 14.70535156 4.48890625 13.71148437 4.125 12.6875 C3.77695312 11.70136719 3.42890625 10.71523438 3.0703125 9.69921875 C2.04694076 6.84405623 2.04694076 6.84405623 0 4 C0 2.68 0 1.36 0 0 Z " fill="#CDCDCE" transform="translate(375,361)"/>
<path d="M0 0 C1.32 0.33 2.64 0.66 4 1 C2.8803014 2.00593243 1.7540588 3.0045849 0.625 4 C-0.00148438 4.556875 -0.62796875 5.11375 -1.2734375 5.6875 C-3 7 -3 7 -5 7 C-5 8.98 -5 10.96 -5 13 C-5.66 12.67 -6.32 12.34 -7 12 C-7 10.02 -7 8.04 -7 6 C-6.01 5.67 -5.02 5.34 -4 5 C-4 4.34 -4 3.68 -4 3 C-3.01 2.67 -2.02 2.34 -1 2 C-0.67 1.34 -0.34 0.68 0 0 Z " fill="#B7B7B8" transform="translate(379,346)"/>
<path d="M0 0 C0.33 0.66 0.66 1.32 1 2 C-1.4585641 7.48448915 -4.24119336 13.27497974 -8 18 C-8.99 18.33 -9.98 18.66 -11 19 C-11 18.34 -11 17.68 -11 17 C-10.34 17 -9.68 17 -9 17 C-8.9175 16.2575 -8.835 15.515 -8.75 14.75 C-7.83699883 11.40232905 -6.43560409 10.43560409 -4 8 C-2.52145292 5.39875954 -1.24171148 2.7211975 0 0 Z " fill="#858588" transform="translate(403,319)"/>
<path d="M0 0 C4.95 0 9.9 0 15 0 C14.67 0.99 14.34 1.98 14 3 C9.71 3 5.42 3 1 3 C0.67 2.01 0.34 1.02 0 0 Z " fill="#D2D2D3" transform="translate(335,289)"/>
<path d="M0 0 C7.69050296 -0.35677591 14.87746106 -0.25516455 22 3 C22.33 3.66 22.66 4.32 23 5 C20.68682039 4.69257097 18.37446648 4.37892298 16.0625 4.0625 C14.77472656 3.88847656 13.48695313 3.71445313 12.16015625 3.53515625 C9 3 9 3 8 2 C6.65252916 1.76924918 5.29622435 1.58846937 3.9375 1.4375 C2.638125 1.293125 1.33875 1.14875 0 1 C0 0.67 0 0.34 0 0 Z " fill="#606064" transform="translate(328,218)"/>
<path d="M0 0 C2.03833424 1.2739589 4.03852126 2.61061923 6 4 C6 4.66 6 5.32 6 6 C7.32 6 8.64 6 10 6 C12.1519437 9.22791555 12.20086443 10.28400809 12 14 C10.85807217 12.85807217 9.71677615 11.71550762 8.578125 10.5703125 C7.43198823 9.42984968 6.27413185 8.30112694 5.109375 7.1796875 C4.47515625 6.56351563 3.8409375 5.94734375 3.1875 5.3125 C2.58292969 4.73113281 1.97835938 4.14976562 1.35546875 3.55078125 C0 2 0 2 0 0 Z " fill="#515154" transform="translate(306,156)"/>
<path d="M0 0 C2.97 0.33 5.94 0.66 9 1 C9 1.66 9 2.32 9 3 C9.62648438 3.19335938 10.25296875 3.38671875 10.8984375 3.5859375 C12.12433594 3.97652344 12.12433594 3.97652344 13.375 4.375 C14.18710937 4.63023437 14.99921875 4.88546875 15.8359375 5.1484375 C18 6 18 6 20 8 C12.86492582 7.24893956 6.32896085 4.25197758 0 1 C0 0.67 0 0.34 0 0 Z " fill="#777779" transform="translate(358,377)"/>
<path d="M0 0 C0 1.70707147 -0.00686613 3.41425671 -0.03515625 5.12109375 C-0.04417969 5.88550781 -0.05320312 6.64992188 -0.0625 7.4375 C-0.07410156 8.19933594 -0.08570313 8.96117187 -0.09765625 9.74609375 C0.00111984 12.02584579 0.17949943 13.86669852 1 16 C1.99 16.33 2.98 16.66 4 17 C4.6875 19.0625 4.6875 19.0625 5 21 C4.01 20.67 3.02 20.34 2 20 C2 19.34 2 18.68 2 18 C1.34 18 0.68 18 0 18 C0 17.01 0 16.02 0 15 C-0.66 15 -1.32 15 -2 15 C-2.05386629 12.87527424 -2.09273071 10.75016348 -2.125 8.625 C-2.14820313 7.44164062 -2.17140625 6.25828125 -2.1953125 5.0390625 C-2 2 -2 2 0 0 Z " fill="#8C8C8E" transform="translate(330,268)"/>
<path d="M0 0 C1.32 0 2.64 0 4 0 C3.57576756 1.46224799 3.13509755 2.91973412 2.6875 4.375 C2.44386719 5.18710937 2.20023438 5.99921875 1.94921875 6.8359375 C1 9 1 9 -2 11 C-2.28571429 3.57142857 -2.28571429 3.57142857 0 0 Z " fill="#454548" transform="translate(140,298)"/>
<path d="M0 0 C-1.98 0.99 -1.98 0.99 -4 2 C-4 2.99 -4 3.98 -4 5 C-4.99 5 -5.98 5 -7 5 C-7.2475 5.639375 -7.495 6.27875 -7.75 6.9375 C-9 9 -9 9 -11.125 9.75 C-12.053125 9.87375 -12.053125 9.87375 -13 10 C-12.67 9.01 -12.34 8.02 -12 7 C-11.01 7 -10.02 7 -9 7 C-8.773125 6.05125 -8.54625 5.1025 -8.3125 4.125 C-7 1 -7 1 -4.5 -0.4375 C-2 -1 -2 -1 0 0 Z " fill="#BCBCBD" transform="translate(258,233)"/>
<path d="M0 0 C4.29 0 8.58 0 13 0 C13 0.66 13 1.32 13 2 C13.99 2.33 14.98 2.66 16 3 C16 3.99 16 4.98 16 6 C15.34 6 14.68 6 14 6 C14 5.34 14 4.68 14 4 C13.38125 3.855625 12.7625 3.71125 12.125 3.5625 C10 3 10 3 8 2 C6.45976004 1.93049459 4.91665012 1.91547643 3.375 1.9375 C2.55773437 1.94652344 1.74046875 1.95554688 0.8984375 1.96484375 C0.27195313 1.97644531 -0.35453125 1.98804688 -1 2 C-0.67 1.34 -0.34 0.68 0 0 Z " fill="#6E6E71" transform="translate(250,165)"/>
<path d="M0 0 C0 0.66 0 1.32 0 2 C-4.51815281 2.88277755 -8.77512694 3.10589503 -13.375 3.0625 C-15.24285156 3.04896484 -15.24285156 3.04896484 -17.1484375 3.03515625 C-18.55996094 3.01775391 -18.55996094 3.01775391 -20 3 C-20 2.67 -20 2.34 -20 2 C-13.25846717 0.74158054 -6.86515862 -0.26404456 0 0 Z " fill="#A6A6A8" transform="translate(341,367)"/>
<path d="M0 0 C0.33 0.99 0.66 1.98 1 3 C-3.38094135 5.26113102 -8.14999866 5.88614956 -13 5 C-13.66 4.01 -14.32 3.02 -15 2 C-14.41992188 2.02320313 -13.83984375 2.04640625 -13.2421875 2.0703125 C-8.38588834 2.18250423 -4.57067605 1.87514915 0 0 Z " fill="#9C9C9F" transform="translate(293,286)"/>
<path d="M0 0 C3.45201639 1.47721422 5.64961936 3.43794001 8.25 6.125 C8.95640625 6.84945312 9.6628125 7.57390625 10.390625 8.3203125 C11.18726563 9.15175781 11.18726563 9.15175781 12 10 C11.67 10.66 11.34 11.32 11 12 C5.31821354 9.65317516 5.31821354 9.65317516 3.8125 6.5625 C3.544375 5.716875 3.27625 4.87125 3 4 C2.04175747 2.63634717 1.05278825 1.29205831 0 0 Z " fill="#99999B" transform="translate(381,240)"/>
<path d="M0 0 C0.66 0.33 1.32 0.66 2 1 C0.95199219 2.01320312 0.95199219 2.01320312 -0.1171875 3.046875 C-1.02726563 3.93890625 -1.93734375 4.8309375 -2.875 5.75 C-3.77992188 6.63171875 -4.68484375 7.5134375 -5.6171875 8.421875 C-8.02488055 10.78670113 -8.02488055 10.78670113 -9.1328125 13.265625 C-9.41898437 13.83796875 -9.70515625 14.4103125 -10 15 C-10.99 15.33 -11.98 15.66 -13 16 C-11.57699887 11.31095412 -8.84303666 8.48389525 -5.375 5.1875 C-4.859375 4.68541016 -4.34375 4.18332031 -3.8125 3.66601562 C-2.54840846 2.43703773 -1.27511194 1.21753999 0 0 Z " fill="#77777A" transform="translate(133,151)"/>
<path d="M0 0 C0.61875 0.804375 1.2375 1.60875 1.875 2.4375 C3.74164041 5.03874519 3.74164041 5.03874519 6 6 C9.1138088 12.11229135 9.1138088 12.11229135 8.6875 15.4375 C8.460625 15.953125 8.23375 16.46875 8 17 C7.0234375 15.27473958 6.046875 13.54947917 5.0703125 11.82421875 C4.10571419 10.18017711 3.05732941 8.58599412 2 7 C2 6.01 2 5.02 2 4 C1.34 4 0.68 4 0 4 C0 2.68 0 1.36 0 0 Z " fill="#5D5D61" transform="translate(400,261)"/>
<path d="M0 0 C2.10304477 -0.1080023 4.20766909 -0.18558987 6.3125 -0.25 C8.07013672 -0.31960938 8.07013672 -0.31960938 9.86328125 -0.390625 C13 0 13 0 14.91796875 2.015625 C15.45357422 2.99789063 15.45357422 2.99789063 16 4 C13.525 3.505 13.525 3.505 11 3 C11 2.34 11 1.68 11 1 C6.28596212 1.47939368 2.33420699 1.96834048 -2 4 C-1.34 2.68 -0.68 1.36 0 0 Z " fill="#606063" transform="translate(277,261)"/>
<path d="M0 0 C-0.66 0 -1.32 0 -2 0 C-2 0.66 -2 1.32 -2 2 C-3.7015625 2.2165625 -3.7015625 2.2165625 -5.4375 2.4375 C-8.80777201 2.61171478 -8.80777201 2.61171478 -10 4 C-12.67058851 4.14115161 -15.32432238 4.04247107 -18 4 C-17.67 3.34 -17.34 2.68 -17 2 C-14.56640625 1.40234375 -14.56640625 1.40234375 -11.5625 0.9375 C-1.93677015 -0.58103105 -1.93677015 -0.58103105 0 0 Z " fill="#BEBEBF" transform="translate(295,220)"/>
<path d="M0 0 C0.66 0.33 1.32 0.66 2 1 C1.67 1.66 1.34 2.32 1 3 C0.01 3.33 -0.98 3.66 -2 4 C-2.33 4.66 -2.66 5.32 -3 6 C-3.99 6 -4.98 6 -6 6 C-6 6.66 -6 7.32 -6 8 C-7.32 8 -8.64 8 -10 8 C-8.84807997 4.5442399 -8.08865366 3.80171463 -5 2 C-2.25 1.8125 -2.25 1.8125 0 2 C0 1.34 0 0.68 0 0 Z " fill="#CFCFD0" transform="translate(252,210)"/>
<path d="M0 0 C0.99 0 1.98 0 3 0 C2.01 4.62 1.02 9.24 0 14 C-0.66 13.67 -1.32 13.34 -2 13 C-2.16682272 8.07872966 -2.24828052 4.49656104 0 0 Z " fill="#E3E3E3" transform="translate(164,170)"/>
<path d="M0 0 C3.48749314 2.78999451 6.50157221 5.25235831 9 9 C8.67 9.66 8.34 10.32 8 11 C5.5 9.6875 5.5 9.6875 3 8 C3 7.01 3 6.02 3 5 C2.01 4.67 1.02 4.34 0 4 C0 2.68 0 1.36 0 0 Z " fill="#B6B6B8" transform="translate(311,163)"/>
<path d="M0 0 C0.66 0.33 1.32 0.66 2 1 C2 6.61 2 12.22 2 18 C0.35 18 -1.3 18 -3 18 C-2.34 17.67 -1.68 17.34 -1 17 C-1 16.01 -1 15.02 -1 14 C-0.34 14 0.32 14 1 14 C0.67 9.38 0.34 4.76 0 0 Z " fill="#A9A9AA" transform="translate(297,268)"/>
<path d="M0 0 C11.79192825 -0.92017937 11.79192825 -0.92017937 14.75390625 1.3359375 C15.8125 3 15.8125 3 17 6 C16.67 6.66 16.34 7.32 16 8 C15.21625 7.030625 14.4325 6.06125 13.625 5.0625 C10.09847334 1.45967829 6.86610444 1.22416391 1.9765625 1.0078125 C0.99816406 1.00394531 0.99816406 1.00394531 0 1 C0 0.67 0 0.34 0 0 Z " fill="#B7B7B8" transform="translate(280,260)"/>
<path d="M0 0 C0.99 0.33 1.98 0.66 3 1 C3.29296875 6.95703125 3.29296875 6.95703125 3 9 C2.01 9.99 1.02 10.98 0 12 C0 8.04 0 4.08 0 0 Z " fill="#D9D9DA" transform="translate(270,175)"/>
<path d="M0 0 C1.485 0.99 1.485 0.99 3 2 C3.1875 4.625 3.1875 4.625 3 7 C3.66 7 4.32 7 5 7 C5 9.64 5 12.28 5 15 C2.26094663 11.84821256 1.44730607 9.35182386 0.8125 5.25 C0.65394531 4.26515625 0.49539062 3.2803125 0.33203125 2.265625 C0.22246094 1.51796875 0.11289063 0.7703125 0 0 Z " fill="#A6A6A7" transform="translate(105,237)"/>
<path d="M0 0 C-0.58007812 0.25394531 -1.16015625 0.50789062 -1.7578125 0.76953125 C-2.53898437 1.11371094 -3.32015625 1.45789063 -4.125 1.8125 C-5.35476563 2.35390625 -5.35476563 2.35390625 -6.609375 2.90625 C-8.56649383 3.80166384 -10.4789002 4.79422418 -12.375 5.8125 C-15 7 -15 7 -18 6 C-4.96969987 -1.4377748 -4.96969987 -1.4377748 0 0 Z " fill="#97979A" transform="translate(276,225)"/>
<path d="M0 0 C1.98270912 0.95098266 3.96108379 1.91100703 5.9375 2.875 C7.03964844 3.40867188 8.14179688 3.94234375 9.27734375 4.4921875 C12 6 12 6 13 8 C11.35 8 9.7 8 8 8 C8 7.34 8 6.68 8 6 C6.68 5.67 5.36 5.34 4 5 C4 4.34 4 3.68 4 3 C2.68 3 1.36 3 0 3 C0 2.01 0 1.02 0 0 Z " fill="#C6C6C7" transform="translate(279,137)"/>
<path d="M0 0 C1.5 1.3125 1.5 1.3125 3 3 C3 3.99 3 4.98 3 6 C3.66 6 4.32 6 5 6 C5.33 7.65 5.66 9.3 6 11 C6.66 11 7.32 11 8 11 C7.67 11.99 7.34 12.98 7 14 C3.79388373 11.86258916 3.27363803 10.97182207 1.8125 7.5625 C1.46832031 6.78003906 1.12414062 5.99757813 0.76953125 5.19140625 C0 3 0 3 0 0 Z " fill="#626265" transform="translate(379,367)"/>
<path d="M0 0 C0.66 0.33 1.32 0.66 2 1 C-0.88406243 4.40843742 -2.3708265 5.86591384 -6.8125 6.8125 C-8.3903125 6.9053125 -8.3903125 6.9053125 -10 7 C-9.67 6.01 -9.34 5.02 -9 4 C-7.68 4 -6.36 4 -5 4 C-5 3.34 -5 2.68 -5 2 C-2.625 0.9375 -2.625 0.9375 0 0 Z " fill="#454549" transform="translate(251,214)"/>
<path d="M0 0 C4.29 0 8.58 0 13 0 C12.01 1.485 12.01 1.485 11 3 C8.6171875 3.29296875 8.6171875 3.29296875 5.875 3.1875 C4.96492187 3.16042969 4.05484375 3.13335937 3.1171875 3.10546875 C2.41851562 3.07066406 1.71984375 3.03585938 1 3 C0.67 2.01 0.34 1.02 0 0 Z " fill="#D7D7D8" transform="translate(251,193)"/>
<path d="M0 0 C1.65 0 3.3 0 5 0 C2.13463296 4.07763771 -0.43041625 6.02677065 -5 8 C-5 7.01 -5 6.02 -5 5 C-4.34 5 -3.68 5 -3 5 C-3 4.34 -3 3.68 -3 3 C-2.01 3 -1.02 3 0 3 C0 2.01 0 1.02 0 0 Z " fill="#38383C" transform="translate(135,146)"/>
<path d="M0 0 C1.65 0 3.3 0 5 0 C4.34 2.64 3.68 5.28 3 8 C2.01 7.67 1.02 7.34 0 7 C0 4.69 0 2.38 0 0 Z " fill="#36363A" transform="translate(374,353)"/>
<path d="M0 0 C0.33 0 0.66 0 1 0 C1.61538462 7.26153846 1.61538462 7.26153846 -1.5 11 C-2.325 11.66 -3.15 12.32 -4 13 C-3.52511102 11.01980257 -3.04497141 9.04086365 -2.5625 7.0625 C-2.29566406 5.96035156 -2.02882813 4.85820312 -1.75390625 3.72265625 C-1 1 -1 1 0 0 Z " fill="#68686B" transform="translate(408,306)"/>
<path d="M0 0 C5.61 0 11.22 0 17 0 C17.33 0.99 17.66 1.98 18 3 C17.34 3 16.68 3 16 3 C16 2.34 16 1.68 16 1 C13.89551062 1.14109986 11.7914123 1.28804175 9.6875 1.4375 C8.51574219 1.51871094 7.34398437 1.59992188 6.13671875 1.68359375 C2.97409042 1.8867371 2.97409042 1.8867371 0 3 C0 2.01 0 1.02 0 0 Z " fill="#CECECF" transform="translate(247,164)"/>
<path d="M0 0 C-4.21683811 2.8990762 -8.06866002 3.91343356 -13 5 C-13 4.01 -13 3.02 -13 2 C-11.39935157 1.46845258 -9.79431126 0.95011647 -8.1875 0.4375 C-7.29417969 0.14746094 -6.40085938 -0.14257812 -5.48046875 -0.44140625 C-3 -1 -3 -1 0 0 Z " fill="#5C5C5F" transform="translate(165,133)"/>
<path d="M0 0 C1.93956814 0.255602 3.87665989 0.53004646 5.8125 0.8125 C7.43091797 1.03873047 7.43091797 1.03873047 9.08203125 1.26953125 C12.06440991 2.01612403 13.14223479 2.62075684 15 5 C13.33388095 5.042721 11.66617115 5.04063832 10 5 C9.67 4.67 9.34 4.34 9 4 C7.48530552 3.76807135 5.96245438 3.58784762 4.4375 3.4375 C3.61121094 3.35371094 2.78492188 3.26992187 1.93359375 3.18359375 C1.29550781 3.12300781 0.65742188 3.06242188 0 3 C0 2.01 0 1.02 0 0 Z " fill="#C5C5C6" transform="translate(250,126)"/>
<path d="M0 0 C3.63 0 7.26 0 11 0 C11 0.66 11 1.32 11 2 C11.99 2.33 12.98 2.66 14 3 C8.78020872 3.1799928 4.92737019 2.97094808 0 1 C0 0.67 0 0.34 0 0 Z " fill="#505054" transform="translate(238,122)"/>
<path d="M0 0 C1.485 0.99 1.485 0.99 3 2 C3.5177665 7.43654822 3.5177665 7.43654822 3 10 C2.01 10.99 1.02 11.98 0 13 C0 8.71 0 4.42 0 0 Z " fill="#4B4B4E" transform="translate(354,269)"/>
<path d="M0 0 C1 2 1 2 0.22265625 4.8203125 C-0.16019531 5.91085937 -0.54304687 7.00140625 -0.9375 8.125 C-1.31777344 9.22070312 -1.69804687 10.31640625 -2.08984375 11.4453125 C-2.39019531 12.28835938 -2.69054687 13.13140625 -3 14 C-3.33 14 -3.66 14 -4 14 C-4 11.03 -4 8.06 -4 5 C-3.34 5 -2.68 5 -2 5 C-1.34 3.35 -0.68 1.7 0 0 Z " fill="#D3D3D4" transform="translate(203,263)"/>
<path d="M0 0 C0.845625 0.144375 1.69125 0.28875 2.5625 0.4375 C6.03593149 1.0058797 9.51445662 1.51202393 13 2 C13 2.99 13 3.98 13 5 C13.99 5.33 14.98 5.66 16 6 C10.5842764 5.12649619 3.95657333 3.95657333 0 0 Z " fill="#28282D" transform="translate(340,218)"/>
<path d="M0 0 C1 3 1 3 0.00390625 5.48046875 C-0.47175781 6.37378906 -0.94742187 7.26710938 -1.4375 8.1875 C-1.91058594 9.08855469 -2.38367188 9.98960937 -2.87109375 10.91796875 C-3.24363281 11.60503906 -3.61617188 12.29210937 -4 13 C-4.33 13 -4.66 13 -5 13 C-5.3227506 8.37390802 -4.84450614 5.71973879 -2 2 C-1.34 2 -0.68 2 0 2 C0 1.34 0 0.68 0 0 Z " fill="#D9D9D9" transform="translate(404,314)"/>
<path d="M0 0 C0.99 0 1.98 0 3 0 C2.34 2.64 1.68 5.28 1 8 C2.65 7.67 4.3 7.34 6 7 C6 7.66 6 8.32 6 9 C3.69 9 1.38 9 -1 9 C-0.67 6.03 -0.34 3.06 0 0 Z " fill="#3C3C40" transform="translate(132,314)"/>
<path d="M0 0 C-2.82553984 4.23830976 -5.12180888 3.97715348 -10 5 C-9.01906046 2.54765115 -8.31296172 1.2190732 -6.125 -0.3125 C-3.64990694 -1.1132654 -2.41712366 -0.86325845 0 0 Z " fill="#737376" transform="translate(164,310)"/>
<path d="M0 0 C0.99 0.33 1.98 0.66 3 1 C3.38281159 6.23175837 2.21854707 9.37802694 0 14 C-0.66 14 -1.32 14 -2 14 C-1.52544634 11.78541624 -1.04759227 10.07932046 0.125 8.125 C1.34009711 5.17404988 0.69349619 3.05138325 0 0 Z " fill="#B5B5B7" transform="translate(144,290)"/>
<path d="M0 0 C0.33 0.66 0.66 1.32 1 2 C0.27720683 3.97125409 -0.45131454 5.94096058 -1.23046875 7.890625 C-2.20220183 10.55425881 -2.6490934 13.19274721 -3 16 C-3.33 16 -3.66 16 -4 16 C-4.46450943 9.49686791 -3.32575612 5.5825192 0 0 Z " fill="#5E5E61" transform="translate(222,268)"/>
<path d="M0 0 C0.66 0.33 1.32 0.66 2 1 C1.04737966 2.48285242 0.08771595 3.96118201 -0.875 5.4375 C-1.40867188 6.26121094 -1.94234375 7.08492188 -2.4921875 7.93359375 C-4 10 -4 10 -6 11 C-6 9.35 -6 7.7 -6 6 C-5.01 6 -4.02 6 -3 6 C-2.690625 5.195625 -2.38125 4.39125 -2.0625 3.5625 C-1 1 -1 1 0 0 Z " fill="#49494C" transform="translate(229,255)"/>
<path d="M0 0 C0.33 1.32 0.66 2.64 1 4 C-0.32 4.33 -1.64 4.66 -3 5 C-3 8.3 -3 11.6 -3 15 C-3.33 15 -3.66 15 -4 15 C-4.63019694 4.84682713 -4.63019694 4.84682713 -2 1.3125 C-1.34 0.879375 -0.68 0.44625 0 0 Z " fill="#333337" transform="translate(247,169)"/>
<path d="M0 0 C0.99 0.66 1.98 1.32 3 2 C2.67 3.65 2.34 5.3 2 7 C-0.4375 6.625 -0.4375 6.625 -3 6 C-3.33 5.34 -3.66 4.68 -4 4 C-2.68 4 -1.36 4 0 4 C0 2.68 0 1.36 0 0 Z " fill="#747477" transform="translate(387,383)"/>
<path d="M0 0 C-0.89203125 0.13277344 -1.7840625 0.26554687 -2.703125 0.40234375 C-4.45882812 0.66724609 -4.45882812 0.66724609 -6.25 0.9375 C-7.99023438 1.19853516 -7.99023438 1.19853516 -9.765625 1.46484375 C-12.23106961 1.8727736 -14.59424562 2.33901303 -17 3 C-17 2.34 -17 1.68 -17 1 C-14.4999744 -0.2500128 -12.40727807 -0.36392833 -9.625 -0.625 C-8.66851562 -0.72039062 -7.71203125 -0.81578125 -6.7265625 -0.9140625 C-4.21530604 -0.99321385 -2.37698275 -0.75477651 0 0 Z " fill="#232327" transform="translate(203,121)"/>
<path d="M0 0 C0.66 0 1.32 0 2 0 C2 1.65 2 3.3 2 5 C0.125 6.0625 0.125 6.0625 -2 7 C-2.66 6.67 -3.32 6.34 -4 6 C-4 5.34 -4 4.68 -4 4 C-3.01 3.67 -2.02 3.34 -1 3 C-0.67 2.01 -0.34 1.02 0 0 Z " fill="#1F1F23" transform="translate(390,386)"/>
<path d="M0 0 C-0.99 0 -1.98 0 -3 0 C-3.2475 0.598125 -3.495 1.19625 -3.75 1.8125 C-5.16370012 4.28647521 -6.65055383 5.43370255 -9 7 C-8.67 5.35 -8.34 3.7 -8 2 C-7.34 2 -6.68 2 -6 2 C-6 1.34 -6 0.68 -6 0 C-3.50907189 -1.24546405 -2.58919267 -0.7767578 0 0 Z " fill="#D5D5D6" transform="translate(280,261)"/>
<path d="M0 0 C0.33 0 0.66 0 1 0 C1.74737188 5.97897503 -0.6768102 9.32379721 -4 14 C-4 10.62534314 -3.18506921 8.46034008 -2 5.3125 C-1.62875 4.31863281 -1.2575 3.32476562 -0.875 2.30078125 C-0.58625 1.54152344 -0.2975 0.78226563 0 0 Z " fill="#C7C7C8" transform="translate(112,179)"/>
<path d="M0 0 C1.48206495 0.254496 2.96068615 0.52911762 4.4375 0.8125 C5.67306641 1.03873047 5.67306641 1.03873047 6.93359375 1.26953125 C7.95646484 1.63111328 7.95646484 1.63111328 9 2 C9.33 2.99 9.66 3.98 10 5 C10.99 5.33 11.98 5.66 13 6 C11.35 6 9.7 6 8 6 C8 5.34 8 4.68 8 4 C7.05125 3.71125 6.1025 3.4225 5.125 3.125 C2 2 2 2 0 0 Z " fill="#AFAFB1" transform="translate(266,131)"/>
<path d="M0 0 C5.21979128 -0.1799928 9.07262981 0.02905192 14 2 C14 2.33 14 2.66 14 3 C11.03 3 8.06 3 5 3 C5 2.34 5 1.68 5 1 C3.35 1 1.7 1 0 1 C0 0.67 0 0.34 0 0 Z " fill="#BFBFC0" transform="translate(234,123)"/>
<path d="M0 0 C0.33 1.32 0.66 2.64 1 4 C-1.31 5.98 -3.62 7.96 -6 10 C-6.66 9.67 -7.32 9.34 -8 9 C-5.36 6.03 -2.72 3.06 0 0 Z " fill="#939395" transform="translate(356,279)"/>
<path d="M0 0 C3.80666984 1.44390925 5.26602582 3.34952803 7 7 C6.67 7.66 6.34 8.32 6 9 C0.42857143 3.85714286 0.42857143 3.85714286 0 0 Z " fill="#7E7E81" transform="translate(393,252)"/>
<path d="M0 0 C0.66 0.33 1.32 0.66 2 1 C0.54634731 2.17249353 -0.91307419 3.33783816 -2.375 4.5 C-3.18710938 5.1496875 -3.99921875 5.799375 -4.8359375 6.46875 C-7 8 -7 8 -9 8 C-9 7.01 -9 6.02 -9 5 C-8.2575 4.731875 -7.515 4.46375 -6.75 4.1875 C-4.13363446 3.05770579 -2.19812889 1.79106798 0 0 Z " fill="#4D4D50" transform="translate(149,138)"/>
<path d="M0 0 C3.55234558 0.60897353 6.7331874 1.45733849 10 3 C10.33 3.66 10.66 4.32 11 5 C9.68 5 8.36 5 7 5 C7 4.34 7 3.68 7 3 C6.030625 2.87625 5.06125 2.7525 4.0625 2.625 C3.051875 2.41875 2.04125 2.2125 1 2 C0.67 1.34 0.34 0.68 0 0 Z " fill="#303034" transform="translate(374,385)"/>
<path d="M0 0 C-0.33 0.99 -0.66 1.98 -1 3 C-3.31 3.33 -5.62 3.66 -8 4 C-4.5 0 -4.5 0 0 0 Z " fill="#3B3B3F" transform="translate(170,308)"/>
<path d="M0 0 C0.99 0.33 1.98 0.66 3 1 C3 5.95 3 10.9 3 16 C2.67 16 2.34 16 2 16 C1.93941406 15.09636719 1.87882812 14.19273437 1.81640625 13.26171875 C1.73261719 12.08222656 1.64882813 10.90273438 1.5625 9.6875 C1.48128906 8.51574219 1.40007812 7.34398437 1.31640625 6.13671875 C1.1132629 2.97409042 1.1132629 2.97409042 0 0 Z " fill="#DDDDDD" transform="translate(297,266)"/>
<path d="M0 0 C0.33 1.32 0.66 2.64 1 4 C-0.65 5.32 -2.3 6.64 -4 8 C-4.66 7.67 -5.32 7.34 -6 7 C-4.02 4.69 -2.04 2.38 0 0 Z " fill="#D0D0D1" transform="translate(239,246)"/>
<path d="M0 0 C0.99 0.33 1.98 0.66 3 1 C2.34 1 1.68 1 1 1 C0.67 2.32 0.34 3.64 0 5 C-0.639375 5.12375 -1.27875 5.2475 -1.9375 5.375 C-2.9584375 5.684375 -2.9584375 5.684375 -4 6 C-4.33 6.66 -4.66 7.32 -5 8 C-5 7.01 -5 6.02 -5 5 C-4.34 5 -3.68 5 -3 5 C-2.67 4.01 -2.34 3.02 -2 2 C-1.34 2 -0.68 2 0 2 C0 1.34 0 0.68 0 0 Z " fill="#CCCCCD" transform="translate(223,231)"/>
<path d="M0 0 C1.485 0.99 1.485 0.99 3 2 C3 2.99 3 3.98 3 5 C3.66 5 4.32 5 5 5 C5 5.66 5 6.32 5 7 C5.66 7.33 6.32 7.66 7 8 C5.68 8 4.36 8 3 8 C1.25 6.25 1.25 6.25 0 4 C0 2.68 0 1.36 0 0 Z " fill="#D1D1D2" transform="translate(242,185)"/>
<path d="M0 0 C0.66 0 1.32 0 2 0 C2 0.99 2 1.98 2 3 C1.34 3 0.68 3 0 3 C-0.12375 3.94875 -0.2475 4.8975 -0.375 5.875 C-1 9 -1 9 -3 11 C-3.39253254 6.55129785 -2.15305957 3.85756507 0 0 Z " fill="#202025" transform="translate(109,178)"/>
<path d="M0 0 C0.33 0.66 0.66 1.32 1 2 C1.99 2 2.98 2 4 2 C5.75 4.375 5.75 4.375 7 7 C6.67 7.66 6.34 8.32 6 9 C1.3125 5.484375 1.3125 5.484375 0 4 C0 2.68 0 1.36 0 0 Z " fill="#6E6E71" transform="translate(119,267)"/>
<path d="M0 0 C0.33 1.32 0.66 2.64 1 4 C0.01 4.33 -0.98 4.66 -2 5 C-2 5.66 -2 6.32 -2 7 C-2.99 7.33 -3.98 7.66 -5 8 C-3.8141763 4.62496331 -2.72426311 2.35277269 0 0 Z " fill="#C1C1C2" transform="translate(232,254)"/>
<path d="M0 0 C2.0625 0.4375 2.0625 0.4375 4 1 C2.3767313 1.6708712 0.75132422 2.33657029 -0.875 3 C-2.23238281 3.556875 -2.23238281 3.556875 -3.6171875 4.125 C-6 5 -6 5 -8 5 C-8 4.01 -8 3.02 -8 2 C-6.865625 1.855625 -5.73125 1.71125 -4.5625 1.5625 C-1.19222799 1.38828522 -1.19222799 1.38828522 0 0 Z " fill="#525256" transform="translate(277,221)"/>
<path d="M0 0 C0.66 0 1.32 0 2 0 C1.75 2.375 1.75 2.375 1 5 C-1.0625 6.3125 -1.0625 6.3125 -3 7 C-3 6.01 -3 5.02 -3 4 C-2.34 4 -1.68 4 -1 4 C-0.67 2.68 -0.34 1.36 0 0 Z " fill="#353539" transform="translate(189,184)"/>
<path d="M0 0 C0 0.66 0 1.32 0 2 C-5.625 4 -5.625 4 -9 4 C-8.67 3.01 -8.34 2.02 -8 1 C-2.59770115 -1.29885057 -2.59770115 -1.29885057 0 0 Z " fill="#D1D1D2" transform="translate(163,135)"/>
<path d="M0 0 C0.66 0 1.32 0 2 0 C3.42944945 2.35438733 4.08661261 3.48032433 3.625 6.25 C3.41875 6.8275 3.2125 7.405 3 8 C0.37613513 4.93882432 0 4.26826873 0 0 Z " fill="#9C9C9F" transform="translate(375,361)"/>
<path d="M0 0 C0.56203125 0.31710937 1.1240625 0.63421875 1.703125 0.9609375 C4.15196317 2.06874525 6.08387855 2.38975399 8.75 2.625 C9.54921875 2.69976562 10.3484375 2.77453125 11.171875 2.8515625 C11.77515625 2.90054687 12.3784375 2.94953125 13 3 C13 3.33 13 3.66 13 4 C9.37 4 5.74 4 2 4 C1.34 2.68 0.68 1.36 0 0 Z " fill="#E0E0E0" transform="translate(276,288)"/>
<path d="M0 0 C0 3 0 3 -2.5 5.6875 C-3.325 6.450625 -4.15 7.21375 -5 8 C-5.3125 5.6875 -5.3125 5.6875 -5 3 C-2.5 1.1875 -2.5 1.1875 0 0 Z " fill="#C4C4C5" transform="translate(212,247)"/>
<path d="M0 0 C0.33 0 0.66 0 1 0 C1.36923077 5.53846154 1.36923077 5.53846154 -0.5 7.875 C-1.2425 8.431875 -1.2425 8.431875 -2 9 C-2.25 3.375 -2.25 3.375 0 0 Z " fill="#9B9B9D" transform="translate(106,193)"/>
<path d="M0 0 C1.32 0 2.64 0 4 0 C4 0.66 4 1.32 4 2 C4.639375 2.12375 5.27875 2.2475 5.9375 2.375 C6.618125 2.58125 7.29875 2.7875 8 3 C8.33 3.66 8.66 4.32 9 5 C6.03 4.01 3.06 3.02 0 2 C0 1.34 0 0.68 0 0 Z " fill="#424246" transform="translate(269,130)"/>
<path d="M0 0 C2.64 0 5.28 0 8 0 C8.33 0.99 8.66 1.98 9 3 C7.35 3 5.7 3 4 3 C4 2.34 4 1.68 4 1 C2.68 0.67 1.36 0.34 0 0 Z " fill="#212126" transform="translate(252,124)"/>
<path d="M0 0 C6.75 1.625 6.75 1.625 9 5 C7.68 5 6.36 5 5 5 C5 4.34 5 3.68 5 3 C2.525 2.01 2.525 2.01 0 1 C0 0.67 0 0.34 0 0 Z " fill="#909093" transform="translate(261,358)"/>
<path d="M0 0 C2.88575819 0.39803561 3.82189513 0.79009069 5.75 3.0625 C6.1625 3.701875 6.575 4.34125 7 5 C5.68 5 4.36 5 3 5 C3 4.34 3 3.68 3 3 C2.34 3 1.68 3 1 3 C0.67 2.01 0.34 1.02 0 0 Z " fill="#4C4C50" transform="translate(242,347)"/>
<path d="M0 0 C4.42857143 5.14285714 4.42857143 5.14285714 5 9 C4.34 9 3.68 9 3 9 C2.67 7.35 2.34 5.7 2 4 C1.34 4 0.68 4 0 4 C0 2.68 0 1.36 0 0 Z " fill="#404044" transform="translate(221,319)"/>
<path d="M0 0 C0.66 0.33 1.32 0.66 2 1 C0.35 2.65 -1.3 4.3 -3 6 C-3.33 5.01 -3.66 4.02 -4 3 C-2.68 2.01 -1.36 1.02 0 0 Z " fill="#232327" transform="translate(277,264)"/>
<path d="M0 0 C0.99 0.33 1.98 0.66 3 1 C3 3.97 3 6.94 3 10 C2.34 9.67 1.68 9.34 1 9 C1.020625 8.2575 1.04125 7.515 1.0625 6.75 C1.00671312 4.29537721 0.6930096 2.33890739 0 0 Z " fill="#202024" transform="translate(329,191)"/>
<path d="M0 0 C0.66 0 1.32 0 2 0 C2 0.66 2 1.32 2 2 C3.65 2.33 5.3 2.66 7 3 C7 3.66 7 4.32 7 5 C4.03 4.505 4.03 4.505 1 4 C0.67 2.68 0.34 1.36 0 0 Z " fill="#49494C" transform="translate(244,186)"/>
</svg>
